<!DOCTYPE svg PUBLIC "-//W3C//DTD SVG 20010904//EN" "http://www.w3.org/TR/2001/REC-SVG-20010904/DTD/svg10.dtd">
<svg version="1.0" xmlns="http://www.w3.org/2000/svg" width="1200px" height="382px" viewBox="0 0 12000 3820" preserveAspectRatio="xMidYMid meet">
<g id="layer101" fill="#231f20" stroke="none">
 <path d="M5929 3697 c-176 -60 -315 -196 -382 -375 -21 -55 -22 -75 -27 -537 l-5 -480 -157 -3 -158 -3 0 606 0 605 -250 0 -250 0 0 -1680 0 -1680 250 0 250 0 2 888 3 887 158 3 157 3 0 -376 0 -375 250 0 250 0 0 308 -1 307 -93 149 c-93 148 -94 150 -78 175 9 14 52 79 94 143 l78 116 0 671 c0 530 -3 671 -12 671 -7 0 -43 -11 -79 -23z"/>
 <path d="M526 3499 c-86 -21 -165 -70 -239 -149 -85 -90 -130 -169 -157 -276 -19 -75 -20 -115 -20 -1257 0 -1043 2 -1186 16 -1241 46 -180 201 -342 379 -399 64 -20 90 -22 285 -22 226 1 263 7 363 57 60 30 180 151 215 215 60 114 62 134 62 505 l0 338 -250 0 -250 0 0 -370 0 -371 -157 3 -158 3 -3 1296 -2 1296 52 7 c29 3 101 6 161 6 l107 0 0 -560 0 -560 -125 0 -125 0 0 -190 0 -190 375 0 375 0 -1 698 c0 625 -2 704 -17 763 -43 162 -184 314 -354 381 -47 19 -78 21 -273 24 -121 2 -238 -1 -259 -7z"/>
 <path d="M2057 3499 c-84 -20 -151 -61 -232 -143 -90 -91 -133 -164 -164 -276 -20 -72 -21 -98 -21 -750 0 -743 -2 -717 62 -845 41 -82 171 -209 258 -253 90 -44 143 -52 370 -52 169 0 207 3 262 20 121 37 257 149 311 256 56 111 57 121 57 596 l0 438 -410 0 -410 0 0 319 0 318 92 7 c50 3 122 6 160 6 l68 0 0 -185 0 -185 250 0 250 0 0 128 c0 215 -40 323 -165 447 -76 77 -158 126 -250 150 -67 17 -420 20 -488 4z m401 -1666 l-3 -278 -155 0 -155 0 -3 278 -2 277 160 0 160 0 -2 -277z"/>
 <path d="M3587 3499 c-84 -20 -151 -61 -232 -143 -90 -91 -133 -164 -164 -276 -20 -72 -21 -97 -21 -750 0 -532 3 -686 14 -725 51 -191 246 -382 425 -415 29 -5 143 -10 251 -10 168 0 207 3 261 20 164 50 305 194 353 359 14 46 16 122 16 493 l0 438 -410 0 -410 0 0 320 0 320 160 0 160 0 0 -180 0 -180 250 0 250 0 0 128 c0 216 -40 323 -166 448 -79 80 -181 137 -273 154 -65 12 -411 11 -464 -1z m401 -1666 l-3 -278 -155 0 -155 0 -3 278 -2 277 160 0 160 0 -2 -277z"/>
 <path d="M8235 3132 c-55 -26 -92 -72 -111 -140 -14 -48 -16 -87 -11 -252 7 -204 26 -479 53 -765 9 -93 19 -253 23 -355 6 -175 8 -188 34 -242 82 -168 281 -212 349 -77 23 44 23 98 -1 201 -63 270 -109 753 -98 1028 6 144 10 165 34 174 8 3 62 -1 119 -9 93 -14 158 -30 384 -91 30 -9 67 -18 83 -21 15 -3 27 -8 27 -12 0 -3 7 -76 15 -163 26 -299 40 -700 27 -791 -16 -111 -15 -190 2 -232 55 -132 199 -199 306 -143 67 35 85 74 83 178 0 47 -8 126 -16 175 -44 256 -82 897 -71 1165 8 166 -2 204 -67 269 -93 92 -249 96 -298 8 -35 -63 -25 -61 -161 -21 -423 125 -619 157 -705 116z"/>
 <path d="M10182 3125 c-101 -44 -120 -133 -82 -375 38 -237 49 -336 65 -560 16 -246 20 -527 6 -549 -9 -14 -70 -10 -316 19 -54 7 -90 6 -112 -1 -73 -24 -113 -120 -94 -224 15 -79 42 -120 94 -139 47 -17 248 -32 522 -41 216 -7 376 -21 467 -40 37 -8 94 -15 128 -15 168 0 293 166 236 315 -36 92 -120 126 -266 106 -46 -6 -129 -11 -185 -11 l-101 0 -17 148 c-45 386 -56 669 -44 1139 2 68 0 74 -38 129 -66 96 -175 137 -263 99z"/>
 <path d="M11406 3125 c-170 -48 -223 -251 -97 -376 53 -54 110 -74 174 -63 51 8 71 19 120 64 57 51 77 97 77 174 0 56 -4 70 -33 112 -56 81 -148 115 -241 89z"/>
 <path d="M6891 3119 c-287 -48 -527 -287 -612 -609 -28 -109 -32 -334 -6 -450 88 -402 360 -712 712 -811 67 -19 104 -23 225 -22 131 0 153 3 225 27 111 38 190 84 272 160 153 142 237 309 270 538 16 111 16 126 1 251 -34 262 -136 471 -320 656 -112 113 -206 174 -348 224 -122 44 -286 58 -419 36z m264 -404 c132 -43 199 -88 311 -208 134 -143 190 -292 182 -484 -5 -126 -27 -187 -98 -266 -88 -99 -179 -133 -330 -124 -52 3 -116 13 -141 21 -187 59 -364 221 -448 409 -123 275 -42 559 185 652 85 35 230 35 339 0z"/>
 <path d="M11454 2539 c-41 -12 -90 -68 -104 -119 -11 -41 4 -129 35 -204 17 -41 50 -203 71 -351 13 -83 18 -189 19 -345 1 -247 2 -252 68 -326 40 -47 138 -94 193 -94 80 0 145 44 164 111 15 53 12 98 -15 200 -29 106 -86 376 -104 489 -6 41 -16 160 -22 265 -13 221 -25 262 -97 325 -63 56 -130 72 -208 49z"/>
 </g>
<g id="layer102" fill="#ffffff" stroke="none">
 <path d="M5949 3591 c-156 -61 -301 -243 -328 -411 -7 -38 -11 -250 -11 -517 l0 -453 -199 0 -198 0 -6 68 c-4 37 -7 309 -7 605 l0 537 -200 0 -200 0 0 -1635 0 -1635 200 0 200 0 2 888 3 887 110 3 c61 2 152 0 203 -3 l92 -7 0 -369 0 -369 205 0 205 0 0 281 0 282 -101 163 -101 164 23 37 c13 21 58 91 101 155 l78 116 0 616 c0 486 -3 616 -12 616 -7 -1 -34 -9 -59 -19z"/>
 <path d="M586 3409 c-156 -37 -329 -227 -365 -401 -8 -37 -11 -417 -9 -1264 l3 -1210 39 -80 c78 -157 229 -270 396 -295 48 -7 129 -9 221 -5 147 6 208 19 288 60 56 29 176 152 209 213 58 111 62 139 62 455 l0 288 -200 0 -200 0 0 -365 0 -365 -204 0 -203 0 -7 77 c-3 42 -6 646 -6 1343 l0 1267 53 7 c68 8 194 8 290 0 l77 -7 0 -598 0 -599 -125 0 -125 0 0 -145 0 -145 325 0 325 0 0 685 c0 668 -1 687 -21 747 -53 157 -196 291 -354 333 -67 17 -400 20 -469 4z"/>
 <path d="M2116 3409 c-152 -36 -315 -210 -361 -384 -13 -50 -15 -161 -15 -742 0 -661 1 -686 20 -744 52 -154 200 -299 349 -343 86 -25 397 -23 483 4 121 37 257 149 311 256 55 109 57 126 57 551 l0 393 -404 0 -403 0 -6 68 c-4 37 -7 200 -7 363 l0 297 115 7 c63 4 157 4 210 0 l95 -7 0 -179 0 -179 200 0 200 0 0 119 c0 186 -39 283 -162 396 -121 112 -200 135 -458 134 -102 -1 -202 -5 -224 -10z m442 -1621 l-3 -323 -201 -3 -201 -2 -7 76 c-3 42 -6 189 -6 326 l0 248 210 0 210 0 -2 -322z"/>
 <path d="M3646 3409 c-152 -36 -315 -210 -361 -384 -13 -50 -15 -161 -15 -742 0 -661 1 -686 20 -744 26 -77 60 -129 128 -201 68 -71 134 -114 213 -139 90 -28 399 -28 490 1 164 50 305 194 353 359 13 46 16 118 16 448 l0 393 -404 0 -403 0 -6 68 c-4 37 -7 201 -7 365 l0 297 205 0 205 0 2 -177 3 -178 203 -3 202 -2 0 118 c0 185 -41 285 -161 396 -122 113 -201 136 -459 135 -102 -1 -202 -5 -224 -10z m434 -1624 l0 -325 -199 0 -198 0 -7 77 c-3 42 -6 188 -6 325 l0 248 205 0 205 0 0 -325z"/>
 <path d="M8235 3132 c-55 -26 -92 -72 -111 -140 -14 -48 -16 -87 -11 -252 7 -204 26 -479 53 -765 9 -93 19 -253 23 -355 6 -175 8 -188 34 -242 82 -168 281 -212 349 -77 23 44 23 98 -1 201 -63 270 -109 753 -98 1028 6 144 10 165 34 174 8 3 62 -1 119 -9 93 -14 158 -30 384 -91 30 -9 67 -18 83 -21 15 -3 27 -8 27 -12 0 -3 7 -76 15 -163 26 -299 40 -700 27 -791 -16 -111 -15 -190 2 -232 55 -132 199 -199 306 -143 67 35 85 74 83 178 0 47 -8 126 -16 175 -44 256 -82 897 -71 1165 8 166 -2 204 -67 269 -93 92 -249 96 -298 8 -35 -63 -25 -61 -161 -21 -423 125 -619 157 -705 116z m257 -52 c85 -16 551 -143 609 -165 13 -5 17 3 22 37 4 31 14 51 38 72 29 25 37 28 86 24 59 -5 90 -23 137 -82 l31 -38 -3 -177 c-5 -298 28 -849 69 -1131 27 -184 28 -255 6 -297 -20 -39 -76 -59 -132 -49 -44 9 -109 65 -137 120 -19 37 -20 49 -12 131 18 183 -6 910 -35 1055 l-7 35 -189 52 c-319 87 -471 108 -513 70 -30 -27 -42 -113 -42 -301 0 -276 34 -606 92 -899 27 -138 29 -163 19 -198 -30 -101 -170 -85 -241 28 -42 66 -50 102 -49 233 1 63 -13 268 -30 455 -42 458 -59 812 -43 896 27 144 99 172 324 129z"/>
 <path d="M10182 3125 c-101 -44 -120 -133 -82 -375 38 -237 49 -336 65 -560 16 -246 20 -527 6 -549 -9 -14 -70 -10 -316 19 -54 7 -90 6 -112 -1 -73 -24 -113 -120 -94 -224 15 -79 42 -120 94 -139 47 -17 248 -32 522 -41 216 -7 376 -21 467 -40 37 -8 94 -15 128 -15 168 0 293 166 236 315 -36 92 -120 126 -266 106 -46 -6 -129 -11 -185 -11 l-101 0 -17 148 c-45 386 -56 669 -44 1139 2 68 0 74 -38 129 -66 96 -175 137 -263 99z m170 -72 c24 -16 48 -46 64 -80 l27 -54 -13 -135 c-23 -239 4 -746 61 -1148 l12 -79 233 7 c204 6 237 5 265 -9 88 -46 72 -199 -27 -268 -56 -39 -106 -43 -249 -19 -113 19 -217 27 -728 52 -114 6 -218 15 -232 20 -43 16 -65 66 -65 145 0 76 15 110 55 125 14 5 84 1 186 -10 90 -11 190 -20 221 -20 l56 0 8 68 c9 90 -2 485 -21 700 -8 95 -26 239 -40 321 -14 82 -28 189 -31 238 -5 78 -3 92 15 121 42 66 129 77 203 25z"/>
 <path d="M11406 3125 c-170 -48 -223 -251 -97 -376 53 -54 110 -74 174 -63 51 8 71 19 120 64 57 51 77 97 77 174 0 56 -4 70 -33 112 -56 81 -148 115 -241 89z m165 -80 c48 -46 62 -81 57 -141 -12 -139 -168 -215 -272 -133 -37 29 -66 91 -66 140 0 60 27 107 79 141 41 26 53 29 108 26 53 -3 67 -9 94 -33z"/>
 <path d="M6891 3119 c-287 -48 -527 -287 -612 -609 -28 -109 -32 -334 -6 -450 88 -402 360 -712 712 -811 67 -19 104 -23 225 -22 131 0 153 3 225 27 111 38 190 84 272 160 153 142 237 309 270 538 16 111 16 126 1 251 -34 262 -136 471 -320 656 -112 113 -206 174 -348 224 -122 44 -286 58 -419 36z m350 -68 c146 -38 276 -118 399 -247 128 -134 203 -264 256 -441 22 -74 27 -114 31 -248 5 -139 2 -171 -16 -248 -68 -284 -267 -503 -522 -573 -92 -26 -287 -24 -390 4 -297 80 -559 355 -654 686 -51 179 -49 416 5 579 44 130 98 217 200 318 70 70 103 95 171 127 46 22 109 45 139 51 30 6 64 13 75 15 44 11 234 -4 306 -23z"/>
 <path d="M6895 2790 c-377 -67 -495 -516 -231 -884 140 -196 339 -312 552 -323 162 -9 265 26 357 120 272 279 108 821 -308 1022 -123 59 -263 84 -370 65z m260 -75 c132 -43 199 -88 311 -208 134 -143 190 -292 182 -484 -5 -126 -27 -187 -98 -266 -88 -99 -179 -133 -330 -124 -52 3 -116 13 -141 21 -187 59 -364 221 -448 409 -123 275 -42 559 185 652 85 35 230 35 339 0z"/>
 <path d="M11454 2539 c-41 -12 -90 -68 -104 -119 -11 -41 4 -129 35 -204 17 -41 50 -203 71 -351 13 -83 18 -189 19 -345 1 -247 2 -252 68 -326 40 -47 138 -94 193 -94 80 0 145 44 164 111 15 53 12 98 -15 200 -29 106 -86 376 -104 489 -6 41 -16 160 -22 265 -13 221 -25 262 -97 325 -63 56 -130 72 -208 49z m124 -54 c83 -35 121 -101 122 -210 1 -209 46 -521 116 -795 48 -191 52 -237 20 -285 -49 -74 -207 -41 -274 58 -36 54 -40 83 -35 253 7 237 -37 563 -102 755 -42 122 -29 195 40 225 40 18 68 17 113 -1z"/>
 </g>

</svg>