<!DOCTYPE svg PUBLIC "-//W3C//DTD SVG 20010904//EN" "http://www.w3.org/TR/2001/REC-SVG-20010904/DTD/svg10.dtd">
<svg version="1.0" xmlns="http://www.w3.org/2000/svg" width="1200px" height="1095px" viewBox="0 0 12000 10950" preserveAspectRatio="xMidYMid meet">
<g id="layer101" fill="#231f20" stroke="none">
 <path d="M4270 10672 c-109 -24 -206 -100 -255 -199 -47 -97 -55 -162 -55 -453 0 -402 28 -827 125 -1855 8 -82 17 -186 21 -230 5 -44 8 -188 9 -320 1 -235 2 -241 27 -302 44 -105 89 -174 157 -243 91 -92 176 -130 291 -130 169 0 273 94 296 269 7 53 -15 205 -42 290 -8 25 -14 57 -14 72 0 15 -4 39 -10 53 -5 14 -11 42 -14 63 -3 21 -16 106 -30 188 -51 309 -98 756 -111 1055 -15 386 -17 505 -6 630 15 176 29 238 54 252 43 22 372 -26 607 -89 52 -14 114 -29 138 -34 24 -5 48 -12 54 -15 6 -4 28 -11 47 -15 20 -4 86 -22 146 -39 61 -17 132 -37 160 -43 l50 -12 12 -115 c12 -120 36 -431 53 -705 16 -259 24 -978 11 -1072 -29 -220 -31 -244 -21 -310 25 -178 180 -359 348 -409 78 -22 199 -15 270 16 65 28 122 90 150 166 18 44 22 77 22 161 0 99 -7 162 -45 403 -21 134 -36 251 -37 280 0 14 -6 86 -14 160 -7 74 -20 230 -28 345 -43 568 -48 701 -46 1125 1 234 2 468 2 520 0 87 -2 101 -32 164 -33 69 -39 78 -93 142 -39 46 -151 117 -216 137 -67 21 -173 22 -234 1 -66 -23 -130 -83 -167 -159 -17 -36 -34 -65 -37 -65 -8 0 -212 58 -408 115 -66 20 -214 61 -245 69 -14 4 -47 13 -75 20 -105 29 -242 64 -295 75 -30 6 -89 18 -130 27 -83 17 -335 27 -390 16z"/>
 <path d="M8027 10649 c-95 -22 -178 -91 -222 -185 -23 -48 -25 -65 -25 -189 0 -128 9 -221 46 -445 8 -52 19 -122 24 -155 5 -33 16 -100 24 -150 21 -128 35 -246 41 -350 3 -49 12 -173 20 -275 43 -570 49 -1130 11 -1167 -2 -3 -48 0 -103 6 -54 5 -156 15 -228 21 -71 7 -175 18 -229 26 -264 37 -358 4 -427 -151 -19 -44 -22 -67 -21 -185 0 -107 4 -145 19 -185 45 -121 118 -184 235 -205 81 -15 276 -27 618 -40 766 -26 1093 -54 1300 -108 43 -11 103 -17 175 -17 102 1 116 3 188 34 64 27 94 48 156 110 108 106 141 181 141 321 0 177 -69 280 -228 343 -54 22 -264 23 -407 2 -103 -15 -422 -20 -441 -7 -12 7 -31 102 -39 187 -3 28 -9 82 -15 120 -23 165 -61 575 -81 875 -18 277 -20 984 -4 1105 21 145 19 250 -5 327 -71 232 -312 387 -523 337z"/>
 <path d="M10376 10640 c-159 -29 -301 -158 -342 -314 -48 -181 38 -395 201 -494 59 -36 143 -62 199 -62 225 0 456 234 456 461 0 153 -99 306 -243 377 -70 35 -182 48 -271 32z"/>
 <path d="M1640 10629 c-125 -20 -278 -60 -305 -79 -5 -3 -32 -15 -60 -25 -45 -17 -85 -37 -140 -73 -11 -6 -27 -15 -35 -19 -20 -8 -120 -85 -189 -142 -111 -94 -276 -306 -358 -462 -84 -157 -151 -364 -179 -548 -17 -112 -19 -467 -4 -574 61 -422 205 -755 471 -1087 355 -444 828 -680 1365 -680 404 0 724 130 1005 410 240 239 385 498 459 820 89 391 53 809 -103 1215 -39 100 -125 270 -177 348 -22 33 -40 63 -40 68 0 5 -3 9 -7 9 -5 0 -19 18 -33 40 -13 22 -28 40 -32 40 -4 0 -8 7 -8 15 0 8 -4 15 -8 15 -5 0 -23 20 -40 44 -39 54 -219 236 -287 291 -28 22 -51 43 -53 48 -2 4 -10 7 -17 7 -7 0 -15 4 -17 9 -2 7 -39 32 -163 108 -141 88 -396 172 -612 203 -85 12 -355 11 -433 -1z m348 -759 c114 -24 175 -44 272 -89 42 -19 183 -102 190 -111 3 -3 25 -20 50 -37 67 -46 238 -217 301 -303 134 -180 201 -328 250 -545 21 -93 18 -392 -4 -480 -22 -82 -87 -223 -130 -280 -48 -63 -135 -144 -199 -186 -171 -110 -411 -137 -693 -78 -53 11 -154 43 -183 58 -9 5 -35 17 -57 27 -165 77 -348 225 -491 397 -217 260 -314 517 -314 834 0 155 12 228 57 338 70 173 199 320 345 394 121 61 205 79 373 80 103 1 165 -5 233 -19z"/>
 <path d="M10437 9493 c-65 -22 -139 -91 -174 -161 -25 -52 -28 -66 -27 -157 1 -92 5 -112 52 -250 61 -182 81 -265 126 -540 71 -430 94 -809 64 -1062 -13 -118 -3 -198 37 -289 30 -68 101 -161 152 -199 21 -16 40 -32 43 -36 12 -16 119 -62 183 -78 50 -13 66 -21 55 -27 -33 -20 -149 -218 -184 -315 -62 -171 -57 -84 -61 -1086 l-4 -913 -305 0 -304 0 0 1170 0 1170 -485 0 -485 0 0 -3255 0 -3255 485 0 485 0 0 1720 0 1720 305 0 305 0 0 -725 0 -725 485 0 485 0 0 604 c0 416 -3 607 -11 611 -5 4 -14 17 -20 28 -9 21 -26 50 -42 71 -14 19 -146 230 -163 261 -9 17 -41 67 -71 113 l-54 84 33 51 c18 28 61 95 96 147 34 52 68 103 75 114 7 10 20 29 30 41 9 13 17 28 17 33 0 6 4 12 8 14 4 2 29 35 55 74 l47 72 0 1307 c0 1217 -1 1307 -17 1301 -9 -4 -35 -11 -57 -16 -54 -12 -194 -59 -228 -76 -15 -8 -29 -14 -31 -14 -2 0 -7 28 -10 63 -6 58 -20 119 -105 437 -31 117 -72 304 -97 445 -9 50 -20 113 -26 141 -5 28 -12 71 -14 95 -3 24 -10 73 -15 109 -6 36 -13 92 -15 125 -3 32 -9 95 -14 140 -5 44 -13 177 -16 295 -7 234 -17 294 -61 385 -36 74 -141 182 -206 213 -96 44 -230 55 -321 25z"/>
 <path d="M1020 6700 c-190 -53 -328 -136 -461 -278 -172 -184 -272 -370 -320 -596 -18 -86 -19 -174 -19 -2395 l0 -2306 25 -100 c95 -381 438 -711 830 -797 86 -19 804 -18 895 1 147 30 290 96 398 184 35 28 169 163 205 205 77 92 143 226 178 365 18 74 19 118 19 733 l0 654 -485 0 -485 0 0 -710 0 -710 -305 0 -305 0 0 2520 0 2520 305 0 305 0 0 -1075 0 -1075 -235 0 -235 0 0 -370 0 -370 720 0 721 0 -4 1373 c-4 1458 -1 1388 -48 1523 -100 288 -390 576 -679 674 -140 47 -174 50 -573 49 -335 -1 -390 -3 -447 -19z"/>
 <path d="M4005 6704 c-220 -63 -328 -127 -480 -285 -135 -141 -232 -300 -290 -474 -54 -164 -54 -167 -55 -1515 0 -1310 1 -1323 45 -1465 80 -257 316 -530 570 -660 192 -97 241 -105 695 -105 448 0 504 7 676 91 152 73 317 218 421 370 40 58 101 187 119 253 30 107 33 201 34 1004 l0 822 -790 0 -790 0 0 625 0 625 305 0 305 0 0 -350 0 -350 485 0 485 0 0 213 c-1 369 -39 533 -171 729 -60 89 -158 197 -226 249 -32 24 -60 46 -63 49 -29 29 -187 112 -260 137 -145 50 -181 53 -583 52 -300 0 -393 -3 -432 -15z m763 -3231 l-3 -538 -302 -3 -303 -2 0 540 0 540 305 0 305 0 -2 -537z"/>
 <path d="M6957 6700 c-338 -90 -622 -370 -751 -740 -53 -154 -50 -59 -53 -1465 -3 -823 0 -1329 6 -1380 24 -196 123 -389 286 -563 173 -184 354 -291 577 -341 64 -15 781 -14 867 0 194 33 386 140 548 307 61 63 142 175 175 242 28 56 68 169 73 203 2 18 9 56 15 86 6 35 10 342 10 872 l0 819 -795 0 -795 0 0 625 0 625 305 0 305 0 0 -350 0 -350 491 0 491 0 -5 253 c-2 144 -10 278 -17 312 -15 73 -51 184 -80 245 -119 255 -364 476 -626 566 -151 51 -176 54 -579 53 -333 -1 -388 -3 -448 -19z m773 -3230 l0 -540 -305 0 -305 0 0 540 0 540 305 0 305 0 0 -540z"/>
 </g>
<g id="layer102" fill="#ffffff" stroke="none">
 <path d="M4270 10672 c-109 -24 -206 -100 -255 -199 -47 -97 -55 -162 -55 -453 0 -402 28 -827 125 -1855 8 -82 17 -186 21 -230 5 -44 8 -188 9 -320 1 -235 2 -241 27 -302 44 -105 89 -174 157 -243 91 -92 176 -130 291 -130 169 0 273 94 296 269 7 53 -15 205 -42 290 -8 25 -14 57 -14 72 0 15 -4 39 -10 53 -5 14 -11 42 -14 63 -3 21 -16 106 -30 188 -51 309 -98 756 -111 1055 -15 386 -17 505 -6 630 15 176 29 238 54 252 43 22 372 -26 607 -89 52 -14 114 -29 138 -34 24 -5 48 -12 54 -15 6 -4 28 -11 47 -15 20 -4 86 -22 146 -39 61 -17 132 -37 160 -43 l50 -12 12 -115 c12 -120 36 -431 53 -705 16 -259 24 -978 11 -1072 -29 -220 -31 -244 -21 -310 25 -178 180 -359 348 -409 78 -22 199 -15 270 16 65 28 122 90 150 166 18 44 22 77 22 161 0 99 -7 162 -45 403 -21 134 -36 251 -37 280 0 14 -6 86 -14 160 -7 74 -20 230 -28 345 -43 568 -48 701 -46 1125 1 234 2 468 2 520 0 87 -2 101 -32 164 -33 69 -39 78 -93 142 -39 46 -151 117 -216 137 -67 21 -173 22 -234 1 -66 -23 -130 -83 -167 -159 -17 -36 -34 -65 -37 -65 -8 0 -212 58 -408 115 -66 20 -214 61 -245 69 -14 4 -47 13 -75 20 -105 29 -242 64 -295 75 -30 6 -89 18 -130 27 -83 17 -335 27 -390 16z m305 -102 c147 -22 399 -85 855 -215 260 -74 477 -135 482 -135 6 0 8 7 5 15 -12 30 15 135 45 176 43 59 102 83 192 77 127 -9 250 -97 311 -223 27 -54 29 -68 28 -155 -9 -446 -4 -923 11 -1160 38 -613 68 -950 107 -1220 46 -315 48 -339 49 -435 0 -141 -41 -212 -143 -245 -57 -18 -162 -9 -222 20 -65 31 -153 121 -187 192 -53 108 -57 175 -21 353 13 69 15 142 10 520 -6 417 -18 674 -52 1109 -16 202 -35 389 -39 394 -4 4 -229 67 -456 128 -409 110 -583 144 -757 147 -111 2 -151 -9 -175 -51 -56 -94 -76 -351 -59 -764 22 -564 81 -1092 172 -1533 67 -321 69 -363 25 -441 -63 -113 -248 -113 -374 0 -51 46 -116 146 -145 222 -20 55 -22 76 -23 299 -1 199 -8 315 -42 680 -68 722 -98 1131 -112 1538 -15 422 5 545 101 639 31 31 65 52 96 62 57 17 217 20 318 6z"/>
 <path d="M8027 10649 c-95 -22 -178 -91 -222 -185 -23 -48 -25 -65 -25 -189 0 -128 9 -221 46 -445 8 -52 19 -122 24 -155 5 -33 16 -100 24 -150 21 -128 35 -246 41 -350 3 -49 12 -173 20 -275 43 -570 49 -1130 11 -1167 -2 -3 -48 0 -103 6 -54 5 -156 15 -228 21 -71 7 -175 18 -229 26 -264 37 -358 4 -427 -151 -19 -44 -22 -67 -21 -185 0 -107 4 -145 19 -185 45 -121 118 -184 235 -205 81 -15 276 -27 618 -40 766 -26 1093 -54 1300 -108 43 -11 103 -17 175 -17 102 1 116 3 188 34 64 27 94 48 156 110 108 106 141 181 141 321 0 177 -69 280 -228 343 -54 22 -264 23 -407 2 -103 -15 -422 -20 -441 -7 -12 7 -31 102 -39 187 -3 28 -9 82 -15 120 -23 165 -61 575 -81 875 -18 277 -20 984 -4 1105 21 145 19 250 -5 327 -71 232 -312 387 -523 337z m218 -118 c63 -28 160 -127 192 -197 35 -78 39 -158 18 -361 -15 -143 -17 -225 -12 -553 9 -574 47 -1060 128 -1661 l22 -157 192 -7 c153 -6 224 -4 347 10 87 9 202 15 264 13 138 -4 192 -27 239 -103 28 -46 30 -54 30 -154 0 -98 -2 -110 -29 -159 -39 -71 -112 -137 -193 -174 -89 -42 -178 -48 -299 -20 -253 60 -490 79 -1358 112 -341 13 -581 34 -627 53 -76 33 -114 104 -125 235 -10 125 23 236 81 273 42 26 87 26 327 -1 278 -32 585 -57 594 -48 3 4 12 53 20 110 26 194 14 681 -31 1303 -20 286 -29 362 -75 640 -55 335 -70 462 -72 589 -1 95 2 117 20 151 27 53 80 103 128 121 51 19 159 12 219 -15z"/>
 <path d="M10376 10640 c-159 -29 -301 -158 -342 -314 -48 -181 38 -395 201 -494 59 -36 143 -62 199 -62 225 0 456 234 456 461 0 153 -99 306 -243 377 -70 35 -182 48 -271 32z m230 -117 c54 -29 120 -96 152 -158 23 -42 27 -62 26 -130 0 -66 -5 -90 -27 -137 -39 -81 -107 -151 -179 -187 -115 -58 -261 -37 -347 49 -122 123 -146 310 -55 441 35 50 109 105 176 130 71 26 195 22 254 -8z"/>
 <path d="M1640 10629 c-125 -20 -278 -60 -305 -79 -5 -3 -32 -15 -60 -25 -45 -17 -85 -37 -140 -73 -11 -6 -27 -15 -35 -19 -20 -8 -120 -85 -189 -142 -111 -94 -276 -306 -358 -462 -84 -157 -151 -364 -179 -548 -17 -112 -19 -467 -4 -574 61 -422 205 -755 471 -1087 355 -444 828 -680 1365 -680 404 0 724 130 1005 410 240 239 385 498 459 820 89 391 53 809 -103 1215 -39 100 -125 270 -177 348 -22 33 -40 63 -40 68 0 5 -3 9 -7 9 -5 0 -19 18 -33 40 -13 22 -28 40 -32 40 -4 0 -8 7 -8 15 0 8 -4 15 -8 15 -5 0 -23 20 -40 44 -39 54 -219 236 -287 291 -28 22 -51 43 -53 48 -2 4 -10 7 -17 7 -7 0 -15 4 -17 9 -2 7 -39 32 -163 108 -141 88 -396 172 -612 203 -85 12 -355 11 -433 -1z m431 -100 c484 -63 904 -346 1217 -821 240 -365 354 -806 322 -1249 -26 -360 -146 -666 -367 -931 -221 -265 -494 -423 -818 -474 -145 -22 -395 -15 -540 16 -215 46 -420 135 -595 258 -113 80 -322 285 -410 401 -223 296 -352 603 -404 962 -21 143 -21 448 0 583 49 311 177 586 381 818 265 300 585 445 989 447 77 1 179 -4 225 -10z"/>
 <path d="M1545 9973 c-328 -70 -576 -332 -649 -686 -35 -170 -14 -450 49 -632 156 -454 579 -861 1020 -982 142 -38 352 -52 488 -32 356 52 621 312 698 684 24 114 25 315 3 446 -84 504 -499 988 -988 1155 -179 61 -457 83 -621 47z m443 -103 c114 -24 175 -44 272 -89 42 -19 183 -102 190 -111 3 -3 25 -20 50 -37 67 -46 238 -217 301 -303 134 -180 201 -328 250 -545 21 -93 18 -392 -4 -480 -22 -82 -87 -223 -130 -280 -48 -63 -135 -144 -199 -186 -171 -110 -411 -137 -693 -78 -53 11 -154 43 -183 58 -9 5 -35 17 -57 27 -165 77 -348 225 -491 397 -217 260 -314 517 -314 834 0 155 12 228 57 338 70 173 199 320 345 394 121 61 205 79 373 80 103 1 165 -5 233 -19z"/>
 <path d="M10437 9493 c-65 -22 -139 -91 -174 -161 -25 -52 -28 -66 -27 -157 1 -92 5 -112 52 -250 61 -182 81 -265 126 -540 71 -430 94 -809 64 -1062 -13 -118 -3 -198 37 -289 30 -68 101 -161 152 -199 21 -16 40 -32 43 -36 13 -18 140 -70 209 -85 62 -14 85 -15 135 -6 237 44 322 230 243 532 -15 58 -36 137 -47 175 -17 62 -40 152 -70 280 -18 78 -39 181 -55 270 -9 50 -20 113 -26 141 -5 28 -12 71 -14 95 -3 24 -10 73 -15 109 -6 36 -13 92 -15 125 -3 32 -9 95 -14 140 -5 44 -13 177 -16 295 -7 234 -17 294 -61 385 -36 74 -141 182 -206 213 -96 44 -230 55 -321 25z m269 -114 c76 -36 136 -99 177 -187 31 -66 31 -70 38 -272 19 -523 95 -1023 234 -1535 63 -231 77 -306 71 -363 -18 -153 -98 -219 -253 -210 -104 6 -190 47 -272 128 -112 112 -144 218 -120 402 26 213 7 553 -56 986 -43 288 -74 426 -147 644 -62 188 -62 283 3 361 73 89 198 106 325 46z"/>
 <path d="M11592 6900 c-306 -109 -550 -363 -664 -691 l-33 -94 -3 -957 -3 -958 -393 0 -393 0 -6 137 c-4 75 -7 604 -7 1175 l0 1038 -392 -2 -393 -3 0 -3165 0 -3165 393 -3 392 -2 0 1720 0 1720 258 0 c141 0 321 -3 400 -7 l142 -6 0 -719 0 -718 390 0 390 0 0 553 -1 552 -193 309 -194 309 30 51 c17 28 66 105 109 171 44 66 85 128 92 139 6 10 20 29 30 41 9 13 17 28 17 33 0 6 4 12 8 14 4 2 29 35 55 74 l47 72 0 1201 c0 954 -3 1201 -12 1200 -7 0 -37 -9 -66 -19z"/>
 <path d="M1210 6539 c-35 -6 -98 -21 -139 -35 -305 -102 -580 -442 -653 -804 -10 -52 -13 -515 -13 -2360 l0 -2295 22 -85 c46 -172 144 -331 293 -474 149 -142 300 -222 488 -258 98 -19 132 -20 412 -15 362 7 435 19 580 94 115 60 162 94 270 203 98 98 123 128 168 203 62 102 84 156 113 270 18 73 19 117 19 643 l0 564 -390 0 -390 0 0 -710 0 -710 -393 0 -394 0 -6 137 c-4 75 -7 1249 -7 2610 l0 2473 400 0 400 0 0 -1165 0 -1165 -240 0 -240 0 2 -277 3 -278 628 -3 627 -2 0 1323 c0 1275 -1 1327 -19 1399 -39 152 -127 296 -265 434 -143 143 -294 229 -476 271 -78 19 -695 28 -800 12z"/>
 <path d="M4187 6539 c-85 -11 -204 -50 -277 -91 -203 -114 -391 -344 -480 -586 -61 -168 -60 -133 -60 -1522 0 -1214 1 -1269 20 -1359 35 -169 122 -322 273 -478 135 -139 267 -223 437 -276 58 -18 99 -21 405 -25 356 -4 423 1 540 39 209 70 408 224 542 420 40 58 101 187 119 253 30 106 33 200 34 913 l0 733 -787 2 -788 3 -3 713 -2 712 397 -2 398 -3 3 -347 2 -348 390 0 390 0 0 215 c0 256 -11 325 -76 463 -55 119 -122 208 -233 314 -154 146 -334 232 -536 257 -105 13 -608 13 -708 0z m771 -2769 c2 -129 0 -412 -3 -627 l-7 -393 -394 0 -394 0 0 630 0 630 398 -2 397 -3 3 -235z"/>
 <path d="M7135 6536 c-215 -37 -380 -139 -545 -337 -100 -120 -176 -266 -222 -425 l-23 -79 0 -1350 c0 -1290 1 -1353 19 -1410 84 -271 297 -520 551 -646 163 -80 173 -82 555 -87 408 -5 499 7 650 82 107 54 229 144 317 234 61 63 142 175 175 242 28 56 68 169 73 203 2 18 9 56 15 86 6 34 10 314 10 782 l0 729 -788 0 -789 0 -6 137 c-4 75 -7 396 -7 715 l0 578 400 0 400 0 0 -350 0 -350 396 0 396 0 -4 243 -4 242 -32 93 c-112 325 -376 569 -707 654 -71 18 -116 21 -415 24 -249 2 -356 0 -415 -10z m785 -3156 l0 -630 -393 0 -394 0 -6 137 c-4 75 -7 358 -7 630 l0 493 400 0 400 0 0 -630z"/>
 </g>

</svg>