<!DOCTYPE svg PUBLIC "-//W3C//DTD SVG 20010904//EN" "http://www.w3.org/TR/2001/REC-SVG-20010904/DTD/svg10.dtd">
<svg version="1.0" xmlns="http://www.w3.org/2000/svg" width="360px" height="327px" viewBox="0 0 3600 3270" preserveAspectRatio="xMidYMid meet">
<g id="layer101" fill="#231f20" stroke="none">
<path d="M1688 3149 c-206 -25 -446 -111 -625 -223 l-102 -64 -24 41 c-14 23 -34 61 -46 85 -26 51 -50 54 -92 13 -25 -26 -29 -37 -29 -88 0 -37 9 -87 25 -133 14 -40 25 -75 25 -77 0 -2 -9 -3 -20 -3 -15 0 -20 -7 -20 -29 0 -23 -5 -30 -27 -36 -56 -14 -94 -48 -157 -143 -64 -97 -156 -273 -156 -300 0 -11 -14 -12 -72 -7 -44 4 -84 2 -100 -4 -25 -9 -30 -7 -53 23 -39 51 -83 157 -98 237 -14 73 -15 73 -27 44 -7 -19 -10 -64 -8 -125 5 -134 46 -218 167 -343 l86 -89 6 -257 c6 -280 14 -338 74 -517 75 -225 192 -413 369 -589 249 -249 522 -385 881 -441 455 -70 990 119 1304 463 l71 78 67 -34 c52 -26 92 -59 168 -138 56 -56 108 -103 117 -103 18 0 73 81 83 121 6 23 0 31 -47 65 -71 51 -248 196 -271 222 -18 20 -17 22 27 100 211 372 254 832 115 1229 -183 521 -639 912 -1176 1008 -108 20 -332 27 -435 14z"/>
</g>
<g id="layer102" fill="#0066b3" stroke="none">
<path d="M1688 3149 c-206 -25 -446 -111 -625 -223 -56 -35 -105 -61 -109 -57 -4 3 12 -23 37 -58 49 -72 100 -117 244 -218 148 -104 159 -109 190 -95 15 7 61 15 103 18 61 5 102 17 195 55 146 61 204 75 252 59 45 -15 68 -45 104 -138 16 -42 53 -128 81 -191 58 -128 90 -240 90 -312 0 -47 1 -48 50 -75 28 -15 50 -31 50 -36 0 -5 -4 -7 -9 -4 -5 3 -24 1 -42 -6 l-33 -11 25 -10 c22 -9 20 -11 -22 -18 -73 -11 -143 -56 -179 -114 -25 -41 -25 -43 3 -48 14 -3 8 -5 -15 -6 -31 -1 -40 -6 -53 -31 -18 -35 -19 -35 -75 -15 -24 8 -45 13 -48 11 -7 -8 142 -132 187 -155 17 -9 61 3 61 16 0 5 -14 25 -30 45 -34 41 -36 38 34 96 15 12 24 26 22 31 -3 5 7 11 23 14 15 3 43 19 62 34 l33 28 -64 5 c-57 4 -62 6 -44 17 16 9 35 10 80 1 54 -10 64 -9 101 11 69 35 87 30 139 -41 60 -81 89 -139 109 -218 22 -83 29 -97 78 -143 l40 -37 -6 -90 c-5 -85 -5 -91 16 -101 38 -20 66 -50 72 -79 5 -22 29 -42 108 -93 56 -36 136 -94 177 -128 41 -35 67 -53 57 -42 -18 21 -17 23 27 101 211 372 254 832 115 1229 -183 521 -639 912 -1176 1008 -108 20 -332 27 -435 14z m736 -1308 c7 -11 -53 -21 -74 -13 -11 4 -8 8 10 13 36 10 58 10 64 0z"/>
<path d="M712 2619 c-55 -27 -128 -129 -212 -292 -57 -113 -70 -147 -52 -147 62 0 344 93 499 165 l74 34 -38 35 c-22 19 -45 46 -53 60 -12 23 -11 28 4 45 17 19 17 20 -1 30 -11 5 -43 13 -72 17 -48 6 -55 10 -67 40 -17 40 -25 41 -82 13z"/>
<path d="M1835 2369 c-22 -22 -53 -48 -70 -56 l-29 -16 43 -38 c24 -22 48 -39 53 -39 15 0 35 61 42 128 3 34 4 62 3 62 -2 0 -21 -18 -42 -41z"/>
<path d="M305 1962 l30 -33 6 -257 c6 -281 14 -339 74 -518 75 -225 192 -413 369 -589 249 -249 522 -385 881 -441 455 -70 990 120 1304 463 l70 77 -47 28 c-26 15 -76 52 -112 83 -67 58 -89 69 -136 63 -42 -5 -39 -22 8 -44 37 -16 42 -23 38 -44 -2 -14 -5 -50 -5 -80 0 -35 -5 -58 -13 -63 -8 -5 -41 -3 -77 4 -49 10 -70 10 -90 1 -46 -21 -30 -49 40 -73 22 -7 41 -14 42 -14 5 -2 -42 -91 -51 -97 -21 -15 -121 -8 -161 11 -74 33 -125 114 -125 196 0 46 26 111 54 134 25 21 -39 70 -108 81 -105 17 -164 61 -306 230 -54 64 -121 134 -148 154 -75 55 -181 100 -352 151 -228 69 -383 132 -674 279 -277 139 -422 225 -496 290 -36 32 -39 34 -15 8z m2405 -1376 c0 -2 3 -11 6 -20 5 -12 0 -16 -20 -16 -19 0 -26 5 -26 20 0 13 7 20 20 20 11 0 20 -2 20 -4z"/>
</g>
<g id="layer103" fill="#4c91c6" stroke="none">
<path d="M723 2625 c-36 -15 -42 -38 -18 -72 11 -15 28 -22 70 -25 63 -5 91 -23 63 -39 -27 -15 -22 -33 28 -88 25 -28 43 -55 40 -59 -3 -5 -33 -19 -67 -31 -33 -13 -58 -25 -56 -28 6 -5 121 39 189 74 l48 23 -38 34 c-21 19 -44 46 -52 60 -12 23 -11 28 4 45 17 19 17 20 -1 30 -11 5 -43 13 -72 17 -48 6 -55 10 -67 40 -16 38 -24 40 -71 19z"/>
<path d="M1670 2563 c-67 -26 -107 -52 -60 -38 36 11 147 63 135 64 -5 0 -39 -11 -75 -26z"/>
<path d="M308 1957 c26 -31 32 -47 33 -85 l0 -47 62 -33 c214 -113 631 -316 719 -350 57 -22 174 -61 259 -87 276 -83 361 -132 476 -270 93 -113 205 -220 253 -243 25 -12 68 -25 95 -28 32 -5 61 -16 80 -33 l31 -26 -30 -42 c-34 -49 -45 -121 -26 -178 31 -95 141 -164 237 -149 61 9 74 30 25 38 -127 20 -211 180 -154 292 11 22 27 46 36 53 25 21 -39 70 -108 81 -105 17 -164 61 -306 230 -54 64 -121 134 -148 154 -75 55 -181 100 -352 151 -228 69 -383 132 -674 279 -278 140 -423 225 -496 291 l-45 40 33 -38z"/>
<path d="M2257 1813 c-31 -8 -7 -23 39 -23 44 0 58 12 28 24 -17 7 -39 6 -67 -1z"/>
<path d="M2180 1800 c-12 -8 -11 -10 8 -10 12 0 22 5 22 10 0 13 -11 13 -30 0z"/>
<path d="M1910 1615 c7 -8 17 -12 22 -9 6 4 5 10 -3 15 -22 14 -33 10 -19 -6z"/>
<path d="M2594 606 c-23 -18 -17 -25 29 -33 25 -4 41 -1 51 9 32 32 -39 53 -80 24z"/>
<path d="M2900 525 c-24 -25 -42 -45 -39 -45 3 0 25 20 49 45 24 25 42 45 39 45 -3 0 -25 -20 -49 -45z"/>
<path d="M1793 113 c37 -2 97 -2 135 0 37 2 6 3 -68 3 -74 0 -105 -1 -67 -3z"/>
</g>
<g id="layer104" fill="#fbfcfc" stroke="none">
<path d="M723 2625 c-36 -15 -42 -38 -18 -72 11 -15 28 -22 70 -25 63 -5 91 -23 63 -39 -28 -15 -22 -33 29 -89 45 -51 46 -53 27 -67 -18 -14 -18 -15 6 -8 14 4 46 18 72 31 l48 24 -38 34 c-21 19 -44 46 -52 60 -12 23 -11 28 4 45 17 19 17 20 -1 30 -11 5 -43 13 -72 17 -48 6 -55 10 -67 40 -16 38 -24 40 -71 19z"/>
<path d="M1822 2357 c-60 -61 -65 -86 -22 -117 35 -25 45 -21 58 23 10 32 25 147 19 147 -1 0 -26 -24 -55 -53z"/>
<path d="M1321 2251 c-18 -12 42 -98 162 -232 91 -101 267 -277 267 -268 0 28 -34 77 -65 94 -44 23 -75 66 -143 200 -80 157 -170 240 -221 206z"/>
<path d="M308 1957 c26 -31 32 -47 33 -85 l0 -47 62 -33 c214 -113 631 -316 719 -350 57 -22 174 -61 259 -87 276 -83 361 -132 476 -270 93 -113 205 -220 253 -243 25 -12 68 -25 95 -28 32 -5 61 -16 80 -33 l31 -26 -30 -42 c-59 -84 -43 -196 38 -271 50 -46 119 -67 180 -55 54 12 55 27 2 41 -88 23 -156 113 -156 206 0 47 25 111 54 135 25 21 -39 70 -108 81 -105 17 -164 61 -306 230 -54 64 -121 134 -148 154 -75 55 -181 100 -352 151 -228 69 -383 132 -674 279 -278 140 -423 225 -496 291 l-45 40 33 -38z"/>
<path d="M2258 1798 c8 -8 20 -8 44 -1 l33 11 -44 1 c-34 1 -42 -2 -33 -11z"/>
<path d="M2260 1729 c-9 -6 -44 -7 -86 -4 -47 4 -74 3 -79 -4 -4 -7 12 -11 47 -11 l53 -1 -33 -30 c-18 -16 -46 -32 -62 -35 -17 -4 -27 -11 -24 -19 3 -7 -13 -27 -35 -45 -23 -17 -41 -36 -41 -41 0 -17 101 -77 121 -72 32 9 32 23 0 64 -35 43 -36 39 33 97 15 12 24 26 22 31 -3 5 7 11 24 14 16 4 44 20 62 36 31 29 30 42 -2 20z"/>
<path d="M2714 828 c-4 -6 -3 -13 2 -15 55 -22 79 -40 76 -60 -3 -24 40 -61 131 -112 l58 -33 30 28 29 28 -49 28 c-28 16 -72 48 -98 72 -26 23 -59 50 -73 59 -28 20 -95 23 -106 5z"/>
<path d="M2594 606 c-24 -18 -16 -26 34 -33 31 -4 40 -2 46 12 3 9 4 21 0 26 -8 14 -58 11 -80 -5z"/>
</g>


</svg>