<!DOCTYPE svg PUBLIC "-//W3C//DTD SVG 20010904//EN" "http://www.w3.org/TR/2001/REC-SVG-20010904/DTD/svg10.dtd">
<svg version="1.0" xmlns="http://www.w3.org/2000/svg" width="312px" height="315px" viewBox="0 0 3120 3150" preserveAspectRatio="xMidYMid meet">
<g id="layer101" fill="#232020" stroke="none">
<path d="M1400 3080 c-279 -34 -547 -144 -763 -313 -51 -39 -62 -44 -84 -36 -38 14 -43 11 -43 -22 0 -25 -15 -47 -75 -111 -178 -189 -314 -455 -372 -728 -26 -122 -26 -478 0 -600 42 -194 123 -387 234 -555 85 -127 273 -317 398 -402 434 -293 946 -351 1430 -162 150 58 395 205 380 228 -2 5 5 11 16 14 11 3 23 15 26 26 4 17 13 21 43 21 69 0 141 70 154 149 4 26 26 68 62 118 64 89 162 283 198 393 54 164 70 271 70 470 0 154 -4 202 -23 290 -45 213 -133 415 -254 587 -77 110 -246 279 -354 356 -173 123 -392 217 -600 257 -124 24 -332 33 -443 20z"/>
</g>
<g id="layer102" fill="#39b54a" stroke="none">
<path d="M1400 3080 c-275 -34 -535 -139 -754 -306 l-63 -48 71 -36 c40 -19 101 -58 136 -85 36 -27 283 -268 550 -535 507 -506 823 -810 843 -810 7 0 48 39 92 87 69 75 79 91 81 126 4 71 55 117 129 117 106 0 166 -109 107 -198 -21 -32 -64 -52 -113 -52 -39 0 -48 -6 -127 -84 l-86 -84 27 -34 c28 -33 180 -234 224 -295 19 -27 33 -34 74 -39 82 -11 121 -46 157 -144 8 -23 11 -21 61 50 62 88 160 284 195 390 54 164 70 271 70 470 0 154 -4 202 -23 290 -45 213 -133 415 -254 587 -77 110 -246 279 -354 356 -173 123 -392 217 -600 257 -124 24 -332 33 -443 20z"/>
<path d="M437 2600 c-187 -203 -315 -455 -374 -730 -26 -122 -26 -478 0 -600 42 -194 123 -387 234 -555 85 -127 273 -317 398 -402 434 -293 946 -351 1430 -162 144 56 399 208 381 226 -3 4 4 11 16 17 38 19 32 39 -18 66 -59 31 -92 80 -98 147 -5 56 -11 73 -27 73 -5 0 -45 29 -89 65 -44 36 -83 65 -87 65 -4 0 -40 32 -79 71 l-71 70 -97 -93 c-95 -92 -97 -95 -91 -130 15 -80 -63 -156 -148 -145 -62 9 -107 60 -107 124 0 79 48 132 120 133 30 0 47 12 130 95 l96 96 -259 262 c-143 144 -298 305 -345 357 -48 52 -172 183 -277 290 -104 107 -222 233 -261 280 -93 110 -217 295 -263 390 l-36 75 -78 -85z"/>
<path d="M2472 1501 c-8 -5 -17 -23 -20 -40 -9 -43 -684 -721 -717 -721 -13 0 -26 -7 -29 -16 -8 -20 19 -64 38 -64 20 0 39 27 33 49 -6 26 686 718 723 723 32 4 41 46 14 65 -21 15 -24 16 -42 4z"/>
<path d="M2211 996 c-74 -74 -80 -84 -66 -96 15 -12 23 -7 73 46 102 107 104 110 89 122 -10 9 -31 -7 -96 -72z"/>
<path d="M2289 934 c-76 -78 -83 -88 -66 -103 11 -8 30 6 86 65 46 47 71 80 67 89 -9 25 -21 18 -87 -51z"/>
<path d="M2346 861 c-63 -63 -76 -91 -42 -91 7 0 41 29 75 65 52 54 61 68 51 80 -7 8 -13 15 -14 15 -1 0 -32 -31 -70 -69z"/>
<path d="M2415 784 c-36 -41 -45 -58 -36 -67 17 -17 125 91 109 110 -16 20 -22 17 -73 -43z"/>
<path d="M2545 721 c-77 -33 -86 -159 -13 -197 41 -21 92 -9 124 29 65 77 -21 207 -111 168z m69 -57 c34 -33 6 -104 -41 -104 -20 0 -43 30 -43 57 0 52 51 80 84 47z"/>
</g>
<g id="layer103" fill="#f9fbf9" stroke="none">
<path d="M490 2655 c-21 -25 24 -122 130 -280 104 -155 179 -243 385 -455 104 -107 265 -276 357 -375 91 -99 252 -265 357 -369 l191 -190 23 22 24 22 -260 263 c-142 144 -298 305 -345 357 -48 52 -172 183 -277 290 -104 107 -222 233 -261 280 -88 104 -212 286 -259 380 -37 73 -45 80 -65 55z"/>
<path d="M680 2552 c0 -23 289 -331 710 -757 250 -253 499 -507 554 -563 60 -64 104 -101 112 -98 8 3 14 9 14 14 0 4 -152 163 -337 353 -186 190 -427 438 -536 551 -216 225 -517 516 -517 500z"/>
<path d="M2466 1494 c-9 -8 -16 -21 -16 -27 0 -15 56 -41 70 -32 17 11 11 54 -9 65 -25 13 -27 13 -45 -6z"/>
<path d="M2336 1478 c-9 -12 -16 -36 -16 -52 0 -29 1 -29 17 -13 14 14 28 87 17 87 -2 0 -10 -10 -18 -22z"/>
<path d="M2081 1065 c-233 -234 -330 -325 -346 -325 -26 0 -41 -28 -25 -44 7 -7 114 93 357 336 191 191 345 349 342 352 -3 3 -150 -141 -328 -319z"/>
<path d="M2540 1350 c-8 -5 -35 -10 -59 -10 -41 0 -48 -5 -127 -82 -46 -45 -84 -86 -84 -92 0 -6 28 18 63 52 55 54 67 62 101 62 47 0 100 24 121 56 16 25 11 30 -15 14z"/>
<path d="M2200 985 c-41 -41 -70 -75 -64 -75 5 0 34 25 64 55 31 33 59 54 67 51 16 -7 30 21 16 35 -5 5 -38 -21 -83 -66z"/>
<path d="M2277 922 c-31 -32 -57 -62 -57 -67 0 -6 22 14 49 43 32 33 54 50 64 46 20 -7 30 11 14 25 -10 8 -27 -3 -70 -47z"/>
<path d="M1956 856 c-53 -53 -96 -99 -96 -103 0 -4 28 20 63 53 102 99 87 97 175 13 42 -41 88 -81 102 -89 13 -8 34 -25 46 -37 11 -13 26 -23 31 -23 5 0 20 -11 33 -25 13 -14 29 -25 37 -25 13 0 19 -18 26 -88 10 -89 120 -175 165 -130 21 21 13 33 -33 56 -58 28 -93 81 -99 151 -6 62 -10 69 -36 54 -22 -14 -47 6 -30 23 7 7 4 17 -10 29 -18 16 -24 17 -41 6 -27 -16 -56 3 -37 26 17 21 -15 52 -36 34 -19 -16 -39 -4 -33 20 7 24 -28 56 -46 41 -8 -7 -18 -7 -27 -2 -12 8 -13 13 -3 28 10 17 7 24 -22 52 l-33 32 -96 -96z"/>
<path d="M2330 845 c-29 -30 -51 -57 -48 -60 3 -3 26 17 50 44 34 37 48 47 56 39 15 -15 26 -4 19 17 -10 24 -19 19 -77 -40z"/>
<path d="M2405 773 c-31 -39 -33 -43 -8 -20 17 16 39 27 49 25 13 -2 19 3 19 16 0 34 -20 27 -60 -21z"/>
<path d="M1588 718 c-22 -45 -23 -80 -2 -124 21 -43 59 -64 118 -64 36 0 52 6 81 31 44 39 45 55 3 33 -45 -23 -103 -13 -142 25 -24 24 -32 42 -36 83 l-5 53 -17 -37z"/>
<path d="M2545 721 c-23 -10 -61 -49 -54 -55 3 -3 24 0 48 5 24 5 52 7 62 4 20 -7 39 -60 39 -110 l1 -30 20 25 c28 33 21 102 -12 136 -27 26 -74 38 -104 25z"/>
<path d="M1756 691 c-11 -12 -16 -24 -12 -28 9 -9 39 22 34 37 -2 7 -10 4 -22 -9z"/>
<path d="M2506 601 c-23 -25 -14 -57 23 -75 18 -10 32 -11 44 -5 25 14 21 36 -7 43 -14 3 -28 17 -33 32 -8 25 -9 25 -27 5z"/>
</g>


</svg>