<!DOCTYPE svg PUBLIC "-//W3C//DTD SVG 20010904//EN" "http://www.w3.org/TR/2001/REC-SVG-20010904/DTD/svg10.dtd">
<svg version="1.0" xmlns="http://www.w3.org/2000/svg" width="315px" height="313px" viewBox="0 0 3150 3130" preserveAspectRatio="xMidYMid meet">
<g id="layer101" fill="#231f20" stroke="none">
 <path d="M1440 3070 c-823 -80 -1444 -810 -1379 -1620 55 -684 544 -1237 1223 -1382 138 -29 405 -32 551 -4 312 58 580 199 806 425 217 218 355 471 421 774 32 149 32 436 -1 587 -32 151 -63 238 -136 385 -214 432 -627 738 -1105 819 -114 19 -277 26 -380 16z"/>
 </g>
<g id="layer102" fill="#ed1d24" stroke="none">
 <path d="M1440 3070 c-823 -80 -1444 -810 -1379 -1620 55 -684 544 -1237 1223 -1382 138 -29 405 -32 551 -4 312 58 580 199 806 425 217 218 355 471 421 774 32 149 32 436 -1 587 -32 151 -63 238 -136 385 -214 432 -627 738 -1105 819 -114 19 -277 26 -380 16z m321 -502 c85 -90 243 -253 352 -363 108 -110 196 -204 194 -210 -4 -12 -1037 -19 -1271 -7 l-158 7 358 368 c197 202 361 367 364 367 4 0 76 -73 161 -162z m299 -60 c168 -94 347 -195 397 -224 l93 -54 -68 -82 c-37 -45 -79 -95 -93 -112 l-26 -30 -224 230 c-122 126 -276 282 -341 347 -65 66 -118 123 -118 129 0 5 17 0 38 -12 20 -12 174 -99 342 -192z m-746 -10 c-110 -112 -249 -254 -309 -316 -61 -63 -126 -126 -145 -142 l-35 -28 -71 87 c-39 47 -78 98 -88 113 l-18 27 44 22 c24 12 147 80 273 152 235 133 523 286 539 287 5 0 -81 -91 -190 -202z m-554 -477 c34 -47 59 -90 56 -96 -2 -6 -27 -121 -56 -255 -76 -361 -131 -614 -135 -625 -2 -5 -4 251 -4 570 l0 580 39 -45 c22 -25 67 -83 100 -129z m1820 -416 c-1 -317 -4 -573 -9 -571 -4 3 -13 38 -20 78 -20 110 -128 619 -151 706 -31 119 -29 129 43 215 35 41 74 90 86 111 12 20 29 36 37 36 12 0 14 -81 14 -575z m-285 288 c-15 -27 -107 -180 -204 -341 -97 -161 -185 -307 -195 -325 -28 -47 -214 -342 -262 -415 l-42 -64 -53 89 c-29 48 -152 250 -274 448 -257 417 -385 632 -385 646 0 5 282 9 721 9 l721 0 -27 -47z m-1064 -629 c116 -198 225 -376 241 -397 33 -43 61 -104 50 -110 -4 -3 -88 15 -187 38 -99 24 -292 70 -428 102 l-248 58 6 45 c3 25 29 155 56 290 27 135 66 325 86 423 l36 179 88 -135 c48 -74 183 -296 300 -493z m1197 258 c41 -196 80 -388 87 -427 7 -38 17 -85 20 -102 6 -24 4 -34 -6 -37 -8 -2 -165 -40 -349 -85 -329 -80 -508 -117 -517 -107 -3 2 13 31 35 64 22 32 49 74 60 93 108 191 581 959 590 959 4 0 40 -161 80 -358z m-1453 -683 c160 -39 361 -87 448 -107 l159 -36 -4 -107 c-2 -59 -6 -110 -9 -114 -4 -3 -168 73 -365 170 -459 224 -541 265 -529 265 6 0 141 -32 300 -71z m1495 38 c-25 -12 -224 -108 -442 -214 -219 -106 -402 -193 -408 -193 -7 0 -10 37 -9 106 1 98 3 106 23 115 57 24 820 207 866 208 8 0 -5 -10 -30 -22z"/>
 </g>
<g id="layer103" fill="#ef7f83" stroke="none">
 <path d="M1840 2484 c68 -71 202 -207 297 -303 95 -95 173 -177 173 -182 0 -4 -7 -12 -16 -17 -13 -7 -13 -10 -1 -20 11 -9 19 -6 41 17 l27 28 -262 269 c-204 210 -275 276 -323 303 l-61 34 125 -129z"/>
 <path d="M1310 2445 c-41 -41 -72 -75 -69 -75 2 0 38 34 79 75 41 41 72 75 69 75 -2 0 -38 -34 -79 -75z"/>
 <path d="M623 2200 c-24 -10 -31 -34 -13 -45 6 -3 10 4 10 17 1 22 3 21 32 -12 16 -19 56 -70 88 -112 l58 -76 33 36 c19 20 25 29 14 20 -20 -16 -23 -14 -100 82 -44 55 -84 100 -90 99 -5 0 -20 -4 -32 -9z"/>
 <path d="M560 1550 c0 -321 2 -581 4 -579 2 2 16 53 30 112 26 109 26 109 26 551 l0 442 -30 29 -30 29 0 -584z"/>
 <path d="M2467 2083 c-17 -25 -53 -72 -79 -103 -44 -54 -68 -96 -68 -123 0 -6 6 -2 14 9 8 10 16 17 18 14 4 -5 143 -674 158 -758 12 -70 20 -60 20 24 0 76 -74 457 -130 672 -31 118 -29 131 38 209 82 97 86 103 73 103 -6 0 -26 -21 -44 -47z"/>
 <path d="M843 1968 c-18 -19 -22 -28 -12 -28 113 -2 1414 1 1416 4 2 2 1 11 -3 20 -6 15 -56 16 -558 17 -303 1 -611 4 -684 8 l-133 6 -26 -27z"/>
 <path d="M820 1876 c0 -8 5 -18 10 -21 6 -3 10 3 10 14 0 12 -4 21 -10 21 -5 0 -10 -6 -10 -14z"/>
 <path d="M934 1752 c46 -71 180 -290 296 -488 117 -197 226 -376 242 -397 32 -41 63 -106 51 -108 -5 -1 -11 -1 -15 0 -4 0 -2 -11 4 -24 14 -31 34 -29 55 5 17 29 29 8 -354 630 -110 179 -224 367 -254 418 -47 80 -57 92 -81 92 -27 0 -26 -2 56 -128z"/>
 <path d="M751 1629 c-23 -112 -62 -296 -86 -409 -24 -113 -47 -223 -50 -245 -4 -22 -9 -47 -11 -56 -4 -13 10 -20 62 -33 72 -18 98 -15 39 4 -20 7 -34 14 -32 16 4 5 208 -42 586 -135 113 -28 207 -49 209 -47 2 3 -1 13 -7 23 -10 20 -121 50 -611 164 -102 24 -187 44 -189 46 -6 4 27 177 96 508 58 281 63 313 51 339 -13 27 -16 18 -57 -175z"/>
 <path d="M2228 1735 c-36 -55 -111 -176 -168 -270 -95 -156 -447 -740 -457 -758 -3 -4 6 -6 19 -3 12 3 41 8 63 11 22 3 186 41 365 84 179 44 350 84 381 91 49 9 56 14 52 30 -3 11 -11 20 -18 20 -6 0 -148 -34 -315 -75 -294 -73 -477 -111 -487 -101 -3 2 13 31 35 64 22 32 49 74 60 93 38 67 377 626 459 758 46 73 82 139 80 145 -2 6 -33 -34 -69 -89z"/>
 <path d="M1065 631 c285 -141 443 -214 447 -207 4 6 8 24 8 39 0 27 -12 34 -306 178 -168 82 -317 151 -330 154 -13 3 -36 7 -50 10 -14 3 -62 14 -107 25 -45 11 -86 20 -92 19 -5 0 188 -98 430 -218z"/>
 <path d="M2407 839 c-20 -5 -203 -90 -407 -189 -203 -99 -374 -180 -380 -180 -8 0 -10 29 -8 90 2 72 0 89 -10 85 -8 -3 -16 -5 -18 -5 -2 0 -4 -29 -4 -64 0 -34 -5 -77 -11 -94 -6 -17 -9 -40 -7 -51 3 -18 22 -11 198 73 107 51 267 128 355 171 88 43 205 100 260 126 99 48 105 55 32 38z"/>
 </g>
<g id="layer104" fill="#fbfafa" stroke="none">
 <path d="M1747 2586 c5 -9 133 -143 284 -297 151 -154 275 -284 277 -290 2 -5 -4 -12 -12 -15 -13 -5 -14 -9 -5 -21 10 -12 16 -10 36 8 12 13 23 28 23 35 0 12 -472 502 -514 535 -12 8 -39 26 -60 39 -31 19 -37 20 -29 6z"/>
 <path d="M623 2198 c-24 -12 -30 -32 -13 -43 6 -3 10 4 10 17 1 22 3 21 31 -12 17 -19 56 -68 86 -108 54 -70 75 -83 81 -50 3 16 -143 202 -162 205 -6 1 -21 -3 -33 -9z"/>
 <path d="M560 1589 c0 -299 4 -550 9 -558 9 -13 15 10 41 137 6 32 10 223 10 481 l0 427 -30 29 -30 29 0 -545z"/>
 <path d="M2483 2098 c-26 -30 -40 -53 -25 -44 12 7 56 66 49 66 -2 0 -13 -10 -24 -22z"/>
 <path d="M839 1964 c-14 -15 -16 -22 -7 -25 25 -7 1418 1 1418 9 -1 28 -29 30 -703 34 l-687 4 -21 -22z"/>
 <path d="M2363 1951 c-20 -25 -43 -72 -43 -88 0 -3 7 0 15 7 9 7 17 11 18 9 2 -2 36 -164 76 -359 40 -195 77 -371 81 -390 6 -27 8 -14 9 53 1 70 -9 134 -48 320 -28 129 -60 271 -72 317 -13 50 -19 99 -16 122 3 21 4 38 4 37 -1 0 -12 -13 -24 -28z"/>
 <path d="M934 1752 c46 -71 180 -290 296 -488 117 -197 226 -376 242 -397 38 -49 60 -101 47 -114 -13 -13 0 -45 18 -41 8 2 21 14 30 28 17 29 29 8 -354 630 -110 179 -224 367 -254 418 -47 80 -57 92 -81 92 -27 0 -26 -2 56 -128z"/>
 <path d="M2187 1663 c-57 -92 -190 -310 -295 -484 -105 -174 -213 -351 -241 -394 -28 -43 -50 -79 -48 -81 5 -6 220 42 497 110 146 35 293 70 326 76 53 10 61 15 57 31 -3 10 -11 19 -18 19 -6 0 -148 -34 -315 -75 -294 -73 -477 -111 -487 -101 -3 2 18 38 46 80 28 41 51 77 51 80 0 5 315 528 457 759 47 76 83 140 80 143 -2 3 -52 -71 -110 -163z"/>
 <path d="M787 1799 c-3 -13 -24 -112 -46 -219 -39 -191 -127 -614 -136 -656 -4 -19 2 -23 55 -37 33 -8 60 -13 60 -11 0 2 -12 10 -27 18 -16 8 -23 15 -18 15 6 1 141 -31 300 -70 160 -38 334 -80 388 -93 98 -24 117 -22 94 7 -10 14 -386 110 -714 183 -46 11 -83 24 -83 29 0 23 45 253 101 522 32 156 59 286 59 291 0 4 -6 16 -14 27 -12 17 -13 17 -19 -6z"/>
 <path d="M1065 631 c285 -141 443 -214 447 -207 4 6 8 24 8 39 0 27 -12 34 -297 173 -275 135 -308 148 -437 180 -77 19 -145 34 -150 33 -6 0 187 -98 429 -218z"/>
 <path d="M2390 831 c-30 -9 -213 -95 -407 -189 -194 -95 -357 -172 -363 -172 -6 0 -10 34 -10 90 0 72 -3 88 -14 84 -10 -4 -16 -30 -20 -82 -3 -42 -8 -94 -12 -114 l-6 -38 48 21 c27 12 173 82 324 156 151 74 334 162 405 195 72 34 132 63 134 65 10 8 -29 0 -79 -16z"/>
 </g>

</svg>