<!DOCTYPE svg PUBLIC "-//W3C//DTD SVG 20010904//EN" "http://www.w3.org/TR/2001/REC-SVG-20010904/DTD/svg10.dtd">
<svg version="1.0" xmlns="http://www.w3.org/2000/svg" width="367px" height="313px" viewBox="0 0 3670 3130" preserveAspectRatio="xMidYMid meet">
<g id="layer101" fill="#231f20" stroke="none">
<path d="M1710 3069 c-260 -32 -492 -118 -705 -262 -123 -83 -314 -275 -394 -397 -115 -172 -201 -374 -233 -544 -12 -63 -16 -70 -45 -82 -18 -8 -49 -21 -68 -29 -20 -8 -47 -15 -61 -15 -28 0 -88 -36 -120 -71 -17 -19 -24 -43 -29 -104 l-7 -80 30 -17 c37 -22 48 -50 62 -158 21 -166 47 -240 110 -320 41 -52 91 -74 180 -80 73 -5 75 -6 75 -31 2 -64 159 -283 307 -425 284 -273 657 -423 1051 -424 530 -1 1038 287 1308 742 68 115 132 255 125 274 -3 8 -1 14 4 14 6 0 10 9 10 20 0 27 9 26 123 -15 106 -38 176 -45 197 -20 11 13 10 21 -7 43 -28 38 -84 68 -182 98 l-83 26 5 36 c26 175 29 220 24 372 -6 166 -34 336 -58 350 -17 11 1 81 28 106 13 12 57 38 98 58 105 52 104 50 63 154 -47 118 -51 119 -212 93 -68 -12 -130 -21 -138 -21 -9 0 -44 39 -79 88 -231 317 -588 539 -977 607 -109 19 -307 26 -402 14z"/>
</g>
<g id="layer102" fill="#716f70" stroke="none">
<path d="M2775 2218 c-113 -10 -164 -16 -173 -21 -4 -3 -29 -8 -57 -11 -82 -9 -155 -23 -245 -46 -127 -32 -330 -100 -330 -110 0 -5 -13 -11 -30 -15 -16 -4 -30 -11 -30 -16 0 -5 -6 -9 -14 -9 -19 0 -89 -78 -105 -118 -12 -28 -11 -48 2 -135 9 -56 26 -128 38 -159 l21 -56 67 -4 c61 -4 71 -1 131 33 36 20 164 88 285 151 121 63 299 162 395 220 96 58 208 124 248 147 39 23 72 46 72 52 0 6 5 7 10 4 6 -3 13 1 16 9 3 9 10 14 14 11 5 -3 23 3 40 14 29 17 31 20 14 29 -52 28 -231 42 -369 30z"/>
<path d="M3192 1990 c-12 -5 -25 -16 -28 -24 -3 -8 -11 -13 -17 -10 -7 2 -88 -32 -182 -77 -371 -177 -497 -235 -658 -305 -93 -40 -171 -74 -173 -77 -3 -3 23 -8 58 -11 170 -18 254 -30 378 -56 227 -48 250 -54 250 -62 0 -5 23 3 52 18 164 83 253 193 304 373 37 134 58 241 46 240 -4 0 -17 -4 -30 -9z"/>
<path d="M920 1837 c-3 -3 -39 -8 -80 -11 -153 -11 -355 -62 -458 -115 -36 -19 -36 -19 -12 -25 14 -3 113 -15 220 -26 107 -11 296 -32 419 -46 123 -14 228 -21 232 -17 4 4 11 37 14 73 5 55 3 70 -14 97 -34 53 -72 67 -201 71 -63 2 -117 2 -120 -1z"/>
<path d="M3383 1685 c0 -22 2 -30 4 -17 2 12 2 30 0 40 -3 9 -5 -1 -4 -23z"/>
<path d="M228 1484 c-12 -11 -10 -206 3 -266 22 -113 63 -180 128 -212 102 -50 349 -25 506 53 121 60 198 141 287 306 l40 75 -39 0 c-41 0 -677 35 -828 46 -49 3 -93 2 -97 -2z"/>
<path d="M3382 1430 c0 -19 2 -27 5 -17 2 9 2 25 0 35 -3 9 -5 1 -5 -18z"/>
<path d="M1266 1414 c-3 -9 -6 -17 -6 -18 0 -2 75 -7 168 -11 291 -13 313 -21 230 -86 -82 -64 -273 -238 -372 -337 -89 -90 -99 -104 -100 -138 -1 -35 2 -39 26 -42 15 -2 40 3 55 12 l28 14 -27 11 c-24 9 -26 13 -19 39 15 50 28 67 103 133 40 35 105 93 143 130 39 36 95 88 125 115 133 121 150 138 150 150 0 19 -20 22 -245 34 -254 13 -252 13 -259 -6z"/>
<path d="M1998 1388 c-36 -12 -35 -19 4 -43 18 -11 44 -27 58 -36 52 -32 123 -44 260 -44 74 0 153 4 175 8 72 13 136 29 132 33 -2 2 -64 17 -138 33 -254 56 -427 73 -491 49z"/>
<path d="M1816 1269 l-26 -20 28 -23 c94 -78 373 -110 615 -71 99 16 249 55 284 73 17 10 66 -3 296 -78 151 -50 280 -90 285 -90 6 0 12 10 14 23 3 20 -8 26 -107 60 -60 21 -174 58 -253 82 l-142 45 -86 -25 c-159 -46 -330 -75 -443 -75 -159 0 -321 35 -386 84 -48 36 -51 37 -79 15z"/>
<path d="M809 955 c-11 -11 -131 -37 -208 -45 -49 -5 -88 -14 -92 -22 -13 -20 -2 -20 118 1 97 16 245 68 202 70 -9 1 -18 -1 -20 -4z"/>
<path d="M1748 33 c12 -2 32 -2 45 0 12 2 2 4 -23 4 -25 0 -35 -2 -22 -4z"/>
<path d="M1938 33 c12 -2 32 -2 45 0 12 2 2 4 -23 4 -25 0 -35 -2 -22 -4z"/>
</g>
<g id="layer103" fill="#9f9e9e" stroke="none">
<path d="M2725 2213 c-103 -12 -315 -49 -400 -70 -128 -32 -343 -101 -350 -113 -3 -6 0 -8 7 -5 278 91 473 132 745 156 153 14 302 3 346 -26 19 -12 26 -11 56 4 32 17 33 19 15 29 -51 27 -277 41 -419 25z"/>
<path d="M2948 2064 c-38 -20 -36 -28 2 -9 17 9 30 18 30 20 0 7 -1 6 -32 -11z"/>
<path d="M2732 1936 c-95 -56 -176 -107 -180 -111 -10 -12 -5 -9 178 100 153 91 191 115 180 115 -3 0 -83 -47 -178 -104z"/>
<path d="M3188 1985 c-27 -15 -29 -21 -48 -135 -14 -86 -35 -148 -81 -245 -40 -85 -71 -124 -145 -180 -56 -43 -45 -46 20 -4 112 71 202 195 241 335 39 138 59 244 47 244 -4 -1 -19 -7 -34 -15z"/>
<path d="M890 1834 c-176 -20 -318 -51 -433 -96 -91 -35 -99 -46 -12 -16 67 22 213 56 278 63 23 3 59 8 79 11 20 3 90 6 155 6 102 1 124 -2 160 -21 55 -27 76 -67 71 -135 -3 -51 -3 -51 27 -51 29 0 30 1 39 67 8 57 6 70 -10 99 -35 60 -74 74 -204 75 -63 1 -131 0 -150 -2z"/>
<path d="M2200 1525 c-14 -8 -20 -14 -15 -14 6 0 21 6 35 14 14 8 21 14 15 14 -5 0 -21 -6 -35 -14z"/>
<path d="M228 1484 c-5 -4 -8 -54 -8 -110 0 -239 62 -362 197 -387 l31 -6 -28 77 c-31 86 -65 233 -76 331 l-7 63 29 -5 c16 -3 182 -13 369 -22 187 -9 350 -19 363 -21 l23 -5 -31 -57 c-53 -93 -142 -212 -185 -245 -63 -48 -64 -52 -7 -21 95 52 175 143 254 289 l40 75 -39 0 c-41 0 -677 35 -828 46 -49 3 -93 2 -97 -2z"/>
<path d="M1266 1414 c-3 -9 -6 -17 -6 -18 0 -2 75 -7 168 -11 218 -10 266 -16 270 -35 2 -14 -133 -141 -232 -216 -23 -18 -94 -86 -160 -152 -108 -110 -119 -123 -120 -158 -1 -35 2 -39 26 -42 15 -2 40 3 55 12 l28 14 -27 11 c-24 9 -26 13 -19 39 14 47 27 66 73 107 24 21 97 88 163 150 66 62 157 145 203 184 45 40 82 79 82 87 0 19 -18 22 -245 34 -254 13 -252 13 -259 -6z"/>
<path d="M1816 1269 l-26 -20 28 -23 c91 -75 365 -110 592 -75 80 12 281 63 310 79 13 7 89 -14 293 -80 151 -50 280 -90 285 -90 6 0 12 10 14 23 3 20 -8 26 -107 60 -60 21 -174 58 -252 82 l-142 45 -118 -34 c-65 -19 -136 -36 -158 -40 -22 -3 -51 -8 -65 -12 -55 -14 -274 -16 -349 -4 -102 17 -188 45 -225 73 -49 37 -52 38 -80 16z"/>
<path d="M762 939 c-32 -12 -64 -18 -161 -29 -48 -5 -88 -15 -92 -22 -4 -7 -6 -14 -5 -16 2 -1 48 4 102 13 102 16 184 41 184 56 0 5 -1 9 -2 8 -2 0 -13 -4 -26 -10z"/>
</g>
<g id="layer104" fill="#faf9fa" stroke="none">
<path d="M2725 2213 c-41 -5 -274 -42 -305 -49 -14 -3 -35 -7 -47 -10 -48 -10 -267 -75 -273 -81 -3 -3 6 -3 20 1 333 88 667 131 840 108 50 -7 101 -19 113 -27 19 -12 26 -11 56 4 32 17 33 19 15 29 -51 27 -276 40 -419 25z"/>
<path d="M3188 1985 c-27 -15 -29 -21 -48 -135 -23 -139 -94 -299 -164 -374 -25 -26 -46 -51 -46 -53 0 -11 77 51 118 96 80 85 149 259 175 444 6 41 4 43 -35 22z"/>
<path d="M885 1833 c-97 -9 -275 -44 -325 -63 -30 -11 -44 -18 -30 -15 25 5 140 23 195 30 17 2 51 7 77 11 26 3 98 6 160 6 97 1 119 -2 155 -21 55 -27 76 -67 71 -135 -3 -51 -3 -51 27 -51 29 0 30 1 39 67 8 57 6 70 -10 99 -35 60 -74 74 -204 75 -63 1 -133 0 -155 -3z"/>
<path d="M1481 1740 c-77 -12 -90 -30 -20 -30 74 0 95 -22 135 -141 3 -9 19 -20 36 -23 58 -11 60 -10 42 32 -9 20 -20 52 -26 70 -12 42 -56 90 -88 96 -14 2 -49 0 -79 -4z"/>
<path d="M228 1484 c-5 -4 -8 -54 -8 -110 0 -239 62 -362 197 -387 l31 -6 -28 77 c-31 86 -65 233 -76 331 l-7 63 29 -5 c16 -3 182 -13 369 -22 187 -9 350 -19 363 -21 l23 -5 -31 -57 c-42 -75 -114 -176 -164 -230 l-40 -44 36 22 c77 45 158 142 230 275 l40 75 -39 0 c-41 0 -677 35 -828 46 -49 3 -93 2 -97 -2z"/>
<path d="M1266 1414 c-3 -9 -6 -17 -6 -18 0 -2 69 -6 153 -10 302 -13 323 -20 251 -83 -21 -19 -75 -67 -119 -106 -43 -40 -82 -71 -85 -70 -4 1 -66 -58 -139 -131 -123 -123 -134 -137 -135 -172 -1 -35 2 -39 26 -42 15 -2 40 3 55 12 l28 14 -27 11 c-24 9 -26 13 -19 39 14 47 26 64 88 122 238 221 296 275 361 329 75 65 87 87 50 95 -22 5 -396 26 -449 26 -15 0 -30 -7 -33 -16z"/>
<path d="M1997 1388 c-44 -16 -23 -25 65 -27 85 -2 310 -40 407 -68 46 -13 63 -13 108 -3 30 6 53 14 50 16 -2 2 -64 17 -138 33 -254 56 -427 73 -492 49z"/>
<path d="M1816 1269 l-26 -20 28 -23 c93 -77 381 -111 607 -72 82 15 253 59 292 76 17 7 81 -10 297 -80 151 -50 278 -90 284 -90 5 0 12 11 14 24 5 22 -4 26 -231 99 -130 42 -245 79 -257 82 -11 3 -41 -2 -65 -11 -24 -8 -51 -17 -59 -19 -8 -2 -40 -11 -70 -19 -30 -8 -73 -18 -95 -21 -22 -4 -51 -9 -65 -11 -64 -14 -277 -16 -349 -4 -102 17 -188 45 -225 73 -49 37 -52 38 -80 16z"/>
<path d="M747 934 c-7 -7 -23 -10 -146 -24 -48 -5 -88 -15 -92 -22 -4 -7 -6 -14 -5 -16 2 -1 48 4 102 13 98 16 154 33 154 47 0 10 -5 10 -13 2z"/>
</g>


</svg>