<!DOCTYPE svg PUBLIC "-//W3C//DTD SVG 20010904//EN" "http://www.w3.org/TR/2001/REC-SVG-20010904/DTD/svg10.dtd">
<svg version="1.0" xmlns="http://www.w3.org/2000/svg" width="313px" height="314px" viewBox="0 0 3130 3140" preserveAspectRatio="xMidYMid meet">
<g id="layer101" fill="#231f20" stroke="none">
 <path d="M1330 3056 c-504 -90 -912 -393 -1130 -841 -335 -686 -108 -1502 535 -1927 152 -101 313 -169 505 -215 156 -37 400 -43 566 -15 556 95 1022 494 1197 1024 58 175 72 268 71 478 0 177 -3 206 -28 315 -136 586 -571 1022 -1156 1162 -88 21 -136 25 -295 28 -130 3 -214 0 -265 -9z"/>
 </g>
<g id="layer102" fill="#fef207" stroke="none">
 <path d="M1330 3056 c-504 -90 -912 -393 -1130 -841 -335 -686 -108 -1502 535 -1927 152 -101 313 -169 505 -215 156 -37 400 -43 566 -15 556 95 1022 494 1197 1024 58 175 72 268 71 478 0 177 -3 206 -28 315 -136 586 -571 1022 -1156 1162 -88 21 -136 25 -295 28 -130 3 -214 0 -265 -9z m512 -854 c151 -41 268 -99 357 -178 60 -53 74 -60 146 -69 169 -19 455 -99 533 -149 47 -30 112 -103 112 -127 0 -24 -101 -163 -168 -231 -100 -102 -207 -145 -482 -193 -131 -22 -147 -27 -168 -52 -128 -152 -197 -210 -307 -258 -199 -88 -398 -84 -595 12 -79 39 -109 60 -181 132 -47 47 -94 98 -105 113 -17 24 -32 29 -169 53 -298 52 -388 89 -499 205 -93 98 -146 175 -146 215 0 39 47 96 106 131 84 49 293 110 484 140 130 20 140 24 198 78 96 89 221 148 393 185 128 28 375 24 491 -7z"/>
 <path d="M1525 1956 c-34 -34 -41 -86 -19 -133 17 -34 24 -38 61 -41 54 -4 73 21 73 96 0 43 -5 58 -25 77 -31 31 -59 32 -90 1z"/>
 <path d="M1147 1917 c-38 -27 -38 -127 -1 -154 28 -20 71 -16 88 9 9 12 16 41 16 64 0 72 -56 116 -103 81z"/>
 <path d="M1924 1922 c-38 -25 -46 -120 -14 -152 27 -27 75 -26 94 2 20 29 20 90 1 128 -12 22 -23 30 -43 30 -15 0 -32 -4 -38 -8z"/>
 <path d="M824 1870 c-27 -11 -48 -71 -39 -108 16 -63 80 -85 111 -37 23 35 14 113 -16 137 -25 20 -26 20 -56 8z"/>
 <path d="M2255 1856 c-50 -50 -25 -156 38 -156 56 0 81 93 40 148 -27 36 -48 38 -78 8z"/>
 <path d="M516 1784 c-40 -39 -30 -112 18 -129 24 -8 31 -6 47 14 52 63 -9 171 -65 115z"/>
 <path d="M2556 1781 c-39 -43 -12 -131 39 -131 32 0 50 27 50 75 0 23 -6 49 -14 58 -18 22 -54 21 -75 -2z"/>
 <path d="M282 1704 c-19 -13 -23 -23 -20 -62 2 -38 8 -49 30 -61 24 -14 28 -14 47 3 28 25 29 96 3 119 -23 21 -32 21 -60 1z"/>
 <path d="M2796 1701 c-23 -25 -24 -86 -1 -111 24 -26 50 -25 69 2 46 66 -16 166 -68 109z"/>
 <path d="M1440 1484 c-14 -2 -65 -9 -115 -15 -100 -13 -236 -49 -296 -79 l-39 -20 15 -38 c34 -81 97 -172 163 -234 117 -110 243 -158 412 -158 186 0 297 46 425 175 57 57 92 103 123 161 23 45 42 86 42 92 0 26 -138 72 -305 102 -62 11 -381 22 -425 14z"/>
 </g>
<g id="layer103" fill="#fffefe" stroke="none">
 <path d="M1533 1965 c-11 -8 -26 -28 -31 -45 -11 -29 -10 -30 19 -30 37 0 66 -29 75 -76 l7 -38 18 23 c13 16 19 40 19 78 0 44 -5 58 -25 78 -28 29 -51 31 -82 10z"/>
 <path d="M1147 1918 c-9 -7 -21 -27 -26 -44 -8 -28 -7 -31 9 -27 23 6 70 -38 70 -66 0 -11 4 -22 9 -26 17 -10 41 38 41 81 0 72 -56 116 -103 82z"/>
 <path d="M1924 1922 c-13 -8 -34 -46 -34 -61 0 -6 8 -11 18 -11 24 0 58 -38 67 -75 l7 -30 19 24 c40 50 14 161 -39 161 -15 0 -32 -4 -38 -8z"/>
 <path d="M824 1870 c-16 -6 -44 -54 -44 -75 0 -1 14 -5 30 -9 29 -5 37 -16 55 -71 6 -19 7 -19 27 5 28 34 21 115 -12 142 -25 20 -26 20 -56 8z"/>
 <path d="M2246 1848 c-22 -31 -20 -58 2 -58 24 0 48 -27 57 -63 7 -26 9 -27 25 -12 23 21 30 59 18 101 -15 55 -74 73 -102 32z"/>
 <path d="M524 1792 c-12 -8 -34 -46 -34 -60 0 -5 11 -14 25 -20 14 -7 30 -24 36 -39 l11 -28 19 24 c47 58 -1 161 -57 123z"/>
 <path d="M2557 1782 c-25 -28 -21 -61 8 -72 14 -5 27 -20 31 -35 8 -30 24 -28 42 6 14 27 9 83 -9 105 -16 20 -53 17 -72 -4z"/>
 <path d="M282 1704 c-29 -20 -30 -69 -2 -77 11 -3 24 -17 30 -32 10 -27 11 -27 30 -10 27 24 27 95 2 118 -23 21 -32 21 -60 1z"/>
 <path d="M2798 1703 c-9 -10 -18 -30 -20 -45 -4 -21 0 -28 17 -32 12 -3 27 -18 34 -33 l13 -28 19 24 c26 32 25 85 -3 111 -27 25 -40 25 -60 3z"/>
 <path d="M137 1631 c-26 -44 -21 -62 32 -137 150 -212 247 -264 614 -328 76 -13 139 -25 140 -27 38 -57 131 -158 179 -194 136 -102 262 -145 428 -145 129 0 196 16 316 75 91 44 165 107 269 226 l40 46 140 23 c161 26 284 59 358 97 54 27 207 167 207 189 0 7 8 18 18 23 9 6 13 11 8 11 -4 0 3 15 16 33 35 47 44 68 11 27 -153 -191 -244 -238 -573 -295 -131 -22 -147 -27 -168 -52 -131 -155 -192 -205 -344 -282 -109 -54 -205 -74 -328 -68 -164 8 -288 65 -402 181 -43 44 -116 149 -130 187 -2 4 -70 19 -153 34 -276 48 -381 88 -475 181 -31 30 -65 54 -76 54 -28 0 -54 31 -54 64 0 25 -38 106 -50 106 -3 0 -13 -13 -23 -29z"/>
 <path d="M1440 1484 c-14 -2 -65 -9 -115 -15 -100 -12 -236 -49 -295 -79 -30 -15 -37 -24 -33 -40 3 -11 8 -22 12 -24 3 -3 43 6 89 19 151 44 286 58 502 52 143 -4 221 -11 293 -27 121 -26 203 -55 220 -80 12 -18 15 -16 35 26 12 24 22 49 22 54 0 24 -142 71 -305 100 -62 11 -381 22 -425 14z"/>
 </g>

</svg>