<!DOCTYPE svg PUBLIC "-//W3C//DTD SVG 20010904//EN" "http://www.w3.org/TR/2001/REC-SVG-20010904/DTD/svg10.dtd">
<svg version="1.0" xmlns="http://www.w3.org/2000/svg" width="336px" height="326px" viewBox="0 0 3360 3260" preserveAspectRatio="xMidYMid meet">
<g id="layer101" fill="#231f20" stroke="none">
 <path d="M1415 3165 c-347 -57 -628 -199 -870 -440 -219 -219 -359 -480 -426 -795 -19 -86 -23 -142 -25 -315 -2 -157 1 -219 11 -245 7 -19 23 -75 34 -124 64 -267 208 -517 415 -721 202 -199 437 -332 703 -399 154 -39 260 -49 443 -43 413 14 744 159 1040 456 183 184 294 361 374 602 57 171 77 312 75 524 l-3 181 42 53 c23 29 42 57 42 62 0 20 -47 32 -80 21 -23 -9 -32 -8 -34 1 -85 313 -209 531 -421 742 -220 221 -477 360 -783 426 -130 27 -409 35 -537 14z"/>
 </g>
<g id="layer102" fill="#fef200" stroke="none">
 <path d="M1415 3165 c-347 -57 -628 -199 -870 -440 -219 -219 -359 -480 -426 -795 -19 -86 -23 -142 -25 -315 -2 -157 1 -219 11 -245 7 -19 23 -75 34 -124 64 -267 208 -517 415 -721 202 -199 437 -332 703 -399 154 -39 260 -49 443 -43 413 14 744 159 1040 456 303 304 451 666 449 1099 0 87 -3 164 -7 173 -5 12 -132 -148 -472 -597 -329 -435 -473 -618 -495 -628 -56 -26 -199 -65 -300 -82 -221 -36 -414 11 -543 130 l-56 53 -48 -19 c-155 -59 -329 -37 -538 67 -207 104 -348 250 -463 480 -25 50 -61 118 -81 150 -20 33 -36 66 -36 73 0 7 140 218 312 470 171 251 362 532 425 625 63 92 120 167 128 167 8 0 34 -26 59 -59 165 -215 514 -420 809 -476 99 -19 236 -28 271 -17 32 9 36 14 62 87 24 68 125 168 221 218 69 36 72 37 82 18 18 -32 14 -38 -53 -75 -91 -51 -159 -116 -185 -177 -35 -80 -29 -89 112 -158 144 -71 257 -106 399 -122 107 -12 248 -3 330 21 l37 11 -20 72 c-72 261 -202 481 -404 682 -220 221 -477 360 -783 426 -130 27 -409 35 -537 14z"/>
 <path d="M880 2097 c-68 -100 -220 -324 -338 -497 -118 -173 -214 -325 -214 -337 -1 -25 60 -140 105 -198 141 -186 323 -301 547 -347 119 -25 207 -20 277 16 61 31 91 62 214 226 35 47 111 148 169 224 58 76 143 189 190 250 47 62 129 170 183 241 54 70 97 129 95 130 -2 2 -34 -11 -72 -30 -168 -81 -345 -70 -550 35 -159 82 -314 222 -427 388 l-56 81 -123 -182z"/>
 <path d="M2063 1632 c-424 -556 -678 -894 -681 -902 -5 -15 79 -90 131 -117 104 -52 265 -66 430 -38 141 25 208 50 262 97 37 33 470 592 545 703 12 18 142 189 253 332 5 7 -37 -9 -94 -37 -57 -27 -133 -56 -169 -64 -178 -42 -345 6 -486 141 -31 29 -57 53 -59 53 -3 0 -62 -76 -132 -168z"/>
 </g>
<g id="layer103" fill="#fbf8a1" stroke="none">
 <path d="M1513 3173 c9 -2 25 -2 35 0 9 3 1 5 -18 5 -19 0 -27 -2 -17 -5z"/>
 <path d="M540 2723 l-55 -58 58 55 c31 30 57 56 57 57 0 8 -10 -1 -60 -54z"/>
 <path d="M2770 2687 c0 -2 15 -16 33 -33 l32 -29 -29 33 c-28 30 -36 37 -36 29z"/>
 <path d="M535 2073 c-224 -329 -416 -610 -427 -625 -23 -29 -20 -65 7 -92 9 -8 46 -73 82 -143 89 -171 132 -234 222 -323 85 -84 151 -131 267 -189 134 -66 212 -86 344 -86 71 0 130 5 153 13 21 8 37 16 35 18 -2 1 -33 -1 -68 -6 -119 -17 -260 15 -420 95 -207 104 -348 250 -463 480 -25 50 -61 118 -81 150 -20 33 -36 66 -36 73 0 7 140 218 312 470 171 251 358 526 415 610 83 122 100 152 84 152 -14 0 -121 -150 -426 -597z"/>
 <path d="M2330 2399 c-81 -48 -159 -145 -185 -227 -6 -20 -4 -23 16 -20 24 3 30 11 55 83 12 36 37 69 85 118 37 37 66 67 65 67 0 0 -17 -9 -36 -21z"/>
 <path d="M986 2255 c-9 -13 -16 -29 -16 -34 0 -5 28 -47 62 -92 167 -226 392 -380 621 -425 73 -14 100 -15 166 -6 44 6 94 18 113 26 l33 15 -40 -7 c-72 -13 -217 -7 -280 12 -215 64 -436 235 -587 455 l-56 81 -16 -25z"/>
 <path d="M2067 1784 c-15 -15 -73 -88 -130 -163 -57 -75 -147 -193 -200 -263 -148 -195 -282 -372 -370 -488 -44 -58 -89 -113 -101 -123 -21 -18 -20 -18 10 -3 41 20 81 64 195 216 35 47 111 148 169 224 58 76 143 189 190 250 47 62 129 170 183 240 53 70 97 129 97 132 0 11 -20 1 -43 -22z"/>
 <path d="M2174 1779 c-19 -21 -19 -22 40 -75 121 -110 269 -158 419 -135 42 7 92 19 110 27 23 11 25 14 7 9 -14 -3 -57 -8 -96 -12 -144 -12 -281 41 -399 154 -31 29 -58 53 -59 53 -2 0 -11 -10 -22 -21z"/>
 <path d="M92 1730 c0 -19 2 -27 5 -17 2 9 2 25 0 35 -3 9 -5 1 -5 -18z"/>
 <path d="M2979 1705 c-14 -8 -51 -47 -81 -87 -30 -40 -108 -143 -173 -228 -65 -85 -205 -272 -312 -415 -107 -143 -215 -282 -241 -309 -53 -55 -25 -47 41 12 32 29 472 601 537 697 12 18 144 192 253 333 12 15 9 15 -24 -3z"/>
 <path d="M92 1530 c0 -19 2 -27 5 -17 2 9 2 25 0 35 -3 9 -5 1 -5 -18z"/>
 <path d="M1287 675 l-28 -11 60 -58 c165 -157 439 -183 769 -75 82 27 75 34 -8 9 -104 -31 -266 -53 -350 -47 -151 11 -266 57 -358 141 -53 50 -59 52 -85 41z"/>
 <path d="M470 607 c0 -1 35 -36 78 -77 l77 -75 -75 78 c-69 71 -80 82 -80 74z"/>
 </g>
<g id="layer104" fill="#fcfcf7" stroke="none">
 <path d="M774 2423 c-93 -137 -284 -418 -426 -626 -142 -208 -258 -384 -258 -390 0 -7 14 -32 30 -55 16 -24 55 -94 86 -155 77 -152 124 -219 213 -307 115 -114 262 -202 421 -251 96 -31 292 -34 350 -6 l35 17 -45 -6 c-25 -3 -55 -7 -67 -10 -33 -6 -160 14 -233 38 -90 29 -224 97 -295 150 -136 102 -230 219 -318 393 -25 50 -61 118 -81 150 -20 33 -36 66 -36 73 0 7 100 160 223 340 418 612 588 863 594 878 3 8 -1 14 -10 14 -9 0 -86 -103 -183 -247z"/>
 <path d="M2304 2378 c-83 -62 -135 -129 -159 -206 -6 -20 -4 -23 16 -20 24 3 30 11 54 81 10 29 39 72 72 108 59 63 63 72 17 37z"/>
 <path d="M986 2255 c-9 -13 -16 -29 -16 -34 0 -5 28 -47 62 -92 167 -226 392 -380 621 -425 74 -15 99 -15 169 -6 45 7 85 15 90 20 4 4 -41 7 -100 7 -123 1 -183 15 -311 78 -163 79 -325 224 -443 396 l-56 81 -16 -25z"/>
 <path d="M2067 1784 c-15 -15 -82 -99 -149 -188 -67 -88 -167 -219 -221 -291 -401 -527 -431 -568 -409 -556 29 16 82 76 183 211 35 47 111 148 169 224 58 76 143 189 190 250 47 62 129 170 183 240 53 70 97 129 97 132 0 11 -20 1 -43 -22z"/>
 <path d="M2174 1779 c-19 -21 -19 -22 40 -75 122 -111 268 -157 423 -134 105 15 117 30 20 23 -148 -11 -284 41 -402 154 -31 29 -58 53 -59 53 -2 0 -11 -10 -22 -21z"/>
 <path d="M2984 1707 c-32 -18 -153 -173 -580 -743 -111 -149 -209 -278 -216 -285 -7 -8 -20 -23 -28 -34 -14 -18 -13 -17 15 2 17 12 46 39 66 60 31 32 465 603 509 668 12 18 144 192 253 333 12 15 8 15 -19 -1z"/>
 <path d="M1287 675 l-28 -11 58 -56 c64 -60 97 -80 182 -109 77 -27 230 -41 311 -30 79 11 226 45 260 60 l25 12 -25 -6 c-14 -4 -74 -15 -135 -26 -232 -43 -428 1 -563 125 -53 50 -59 52 -85 41z"/>
 </g>

</svg>