<!DOCTYPE svg PUBLIC "-//W3C//DTD SVG 20010904//EN" "http://www.w3.org/TR/2001/REC-SVG-20010904/DTD/svg10.dtd">
<svg version="1.0" xmlns="http://www.w3.org/2000/svg" width="326px" height="336px" viewBox="0 0 3260 3360" preserveAspectRatio="xMidYMid meet">
<g id="layer101" fill="#231f20" stroke="none">
 <path d="M1353 3270 c-24 -5 -64 -18 -90 -30 -50 -22 -133 -95 -133 -117 0 -7 -5 -13 -11 -13 -5 0 -7 -4 -4 -10 3 -5 0 -7 -8 -4 -16 6 -149 -51 -242 -105 -369 -211 -640 -568 -738 -971 -140 -575 50 -1168 494 -1546 45 -38 85 -68 90 -66 5 1 9 -7 9 -18 0 -11 12 -38 26 -60 70 -106 256 -189 493 -220 92 -12 492 -10 484 3 -3 4 19 5 49 2 40 -5 49 -4 38 5 -11 8 -3 9 35 5 39 -5 47 -4 35 5 -12 9 -11 10 8 5 42 -12 241 44 383 108 376 170 699 533 823 924 55 176 69 274 70 473 0 213 -14 306 -74 490 -173 532 -619 923 -1178 1035 -46 9 -90 14 -97 11 -7 -2 -19 2 -27 11 -18 22 -101 58 -167 72 -75 16 -218 22 -268 11z"/>
 </g>
<g id="layer102" fill="#fdfdfd" stroke="none">
 <path d="M1353 3270 c-116 -25 -194 -85 -244 -188 -57 -115 -41 -269 36 -359 71 -84 216 -134 390 -136 214 -3 341 89 375 270 38 200 -74 356 -289 402 -75 16 -218 22 -268 11z m279 -71 c174 -38 261 -139 244 -286 -12 -101 -52 -164 -131 -206 -55 -29 -233 -36 -325 -13 -91 23 -159 64 -195 114 -28 41 -30 50 -30 135 0 83 3 97 28 139 33 56 80 95 139 113 53 17 200 19 270 4z"/>
 <path d="M1370 2440 c-286 -49 -429 -325 -300 -579 94 -188 206 -281 720 -599 302 -186 400 -281 400 -384 0 -80 -33 -126 -125 -171 -116 -58 -315 -83 -529 -67 -245 18 -414 60 -569 140 -44 22 -81 40 -83 40 -9 0 -115 -141 -137 -183 -76 -143 -48 -294 72 -381 103 -75 243 -124 426 -146 113 -15 446 -6 555 14 19 3 51 8 70 11 19 2 50 8 69 14 18 6 36 10 40 9 3 -1 13 1 21 5 22 8 184 61 190 62 18 2 213 114 249 143 122 100 206 225 231 349 18 84 8 245 -19 311 -76 189 -228 324 -659 583 -163 98 -248 163 -290 224 -31 46 -34 55 -30 111 5 76 38 131 156 256 l81 85 -76 44 c-181 104 -313 135 -463 109z m265 -72 c22 -5 73 -25 114 -44 84 -39 84 -26 -7 -128 -77 -87 -112 -163 -112 -243 0 -82 17 -120 82 -189 63 -67 131 -117 293 -214 372 -224 517 -345 591 -495 39 -79 39 -79 39 -199 0 -103 -4 -130 -24 -179 -88 -222 -356 -391 -727 -459 -100 -18 -157 -22 -354 -22 -208 0 -247 2 -340 23 -183 39 -313 110 -355 192 -37 70 -6 192 71 285 l34 43 73 -34 c327 -150 860 -179 1112 -59 120 56 179 137 179 244 0 157 -85 236 -615 565 -313 194 -429 296 -511 449 -27 52 -33 74 -36 148 -4 76 -1 93 20 140 72 156 265 228 473 176z"/>
 </g>

</svg>