<!DOCTYPE svg PUBLIC "-//W3C//DTD SVG 20010904//EN" "http://www.w3.org/TR/2001/REC-SVG-20010904/DTD/svg10.dtd">
<svg version="1.0" xmlns="http://www.w3.org/2000/svg" width="327px" height="327px" viewBox="0 0 3270 3270" preserveAspectRatio="xMidYMid meet">
<g id="layer101" fill="#231f20" stroke="none">
<path d="M1497 3179 c-321 -28 -628 -159 -879 -373 -43 -36 -84 -66 -92 -66 -32 0 -46 -14 -52 -49 -6 -36 -6 -36 -49 -33 -56 5 -75 -20 -75 -98 0 -41 -6 -64 -23 -90 -162 -243 -263 -625 -242 -915 28 -403 179 -740 455 -1015 418 -419 1016 -562 1580 -379 426 139 779 467 947 881 119 291 149 603 88 903 -47 230 -164 481 -307 656 -25 31 -48 65 -50 75 -2 10 -12 23 -24 29 -11 5 -52 39 -92 74 -160 144 -359 261 -554 325 -130 44 -225 63 -369 76 -125 11 -134 11 -262 -1z"/>
</g>
<g id="layer102" fill="#604749" stroke="none">
<path d="M366 2638 c-10 -14 -16 -43 -16 -78 0 -41 -6 -64 -23 -90 -162 -243 -263 -625 -242 -915 28 -403 179 -740 455 -1015 418 -419 1016 -562 1580 -379 426 139 779 467 947 881 145 355 157 725 37 1086 -55 168 -168 373 -266 486 l-35 40 -7 -536 c-4 -294 -4 -631 0 -747 l7 -211 -51 0 c-28 0 -54 5 -57 11 -5 7 5 8 29 4 20 -4 36 -3 36 1 0 5 -24 54 -53 109 l-53 100 -110 5 c-60 3 -110 4 -112 3 -4 -2 48 -108 83 -167 22 -38 32 -46 57 -46 18 0 27 -4 23 -11 -5 -7 -74 -9 -224 -4 -238 7 -758 13 -1143 14 -158 1 -248 5 -248 11 0 6 11 10 25 10 25 0 25 1 -29 103 -55 101 -56 102 -98 109 -24 3 -73 7 -110 7 -76 1 -80 -4 -48 -56 15 -25 27 -33 49 -33 17 0 33 -4 36 -10 4 -6 -7 -10 -25 -10 l-31 0 28 -52 c22 -42 34 -54 56 -56 15 -2 25 -7 22 -12 -3 -5 -38 -6 -79 -3 -53 4 -75 2 -81 -7 -12 -19 12 -28 95 -35 100 -8 136 -23 58 -24 -32 -1 -58 -5 -58 -10 0 -5 -15 -27 -32 -50 -18 -22 -48 -61 -66 -86 l-33 -45 31 -6 c16 -4 30 -10 30 -14 0 -3 -55 1 -122 11 -68 10 -138 19 -157 19 l-33 0 6 63 c4 34 11 91 16 127 5 36 12 225 15 420 3 195 8 420 10 500 2 80 5 249 7 375 l3 230 -42 3 c-33 2 -44 -1 -57 -20z m724 -1538 c19 -5 64 -11 100 -15 36 -3 97 -10 135 -15 39 -6 87 -11 108 -14 51 -5 55 -11 7 -13 -21 -1 -51 -9 -67 -17 -29 -15 -63 -50 -63 -65 0 -4 -16 -30 -36 -56 -38 -48 -36 -64 8 -65 9 0 19 -4 22 -8 3 -5 -18 -5 -47 -1 -29 5 -72 11 -97 15 -74 9 -331 46 -380 54 -39 7 -35 8 30 7 l75 -2 71 95 72 95 -61 12 -62 12 75 -5 c41 -3 91 -9 110 -14z m670 -90 c118 -16 218 -30 223 -30 4 0 7 -4 7 -9 0 -5 -8 -7 -19 -4 -18 5 -30 -9 -127 -140 -20 -27 -34 -50 -32 -52 3 -3 43 -11 71 -14 4 -1 7 -5 7 -9 0 -5 -24 -5 -52 -1 -29 5 -138 20 -243 34 -104 14 -191 27 -192 29 -2 2 10 6 26 9 23 5 45 27 95 93 37 48 66 91 66 96 0 4 -13 8 -29 8 -16 0 -36 3 -45 6 -21 8 -9 26 12 20 10 -3 114 -19 232 -36z m553 -75 c138 -19 252 -36 254 -39 2 -2 -9 -6 -25 -9 -23 -5 -45 -27 -96 -97 -36 -50 -66 -93 -66 -95 0 -3 17 -5 38 -5 20 0 44 -5 52 -10 24 -16 -14 -13 -259 20 -228 31 -266 38 -221 39 35 2 39 5 113 106 l66 90 -47 12 c-26 6 -62 12 -79 12 -18 1 -33 6 -33 12 0 7 10 9 26 5 15 -4 139 -23 277 -41z m401 -55 c32 -5 59 -10 61 -12 5 -6 -30 -226 -37 -233 -3 -4 -57 1 -120 10 -117 17 -159 30 -75 22 30 -2 53 1 60 8 25 26 54 63 94 122 42 59 42 61 20 66 -37 9 -121 21 -130 19 -5 -1 -5 3 -2 9 5 7 19 8 39 4 17 -3 57 -10 90 -15z m-1349 -50 c3 -5 -3 -10 -14 -10 -12 0 -21 5 -21 10 0 6 6 10 14 10 8 0 18 -4 21 -10z m585 -80 c12 -8 9 -10 -13 -10 -16 0 -26 4 -22 10 8 12 16 12 35 0z"/>
<path d="M1188 2606 c-5 -27 -8 -98 -8 -159 l0 -110 -310 6 c-170 3 -310 2 -310 -2 0 -5 242 -11 538 -15 295 -3 610 -8 700 -11 89 -2 162 -1 162 4 0 5 -171 12 -380 16 l-380 7 -2 157 c-2 114 -5 143 -10 107z"/>
<path d="M2070 2485 l0 -155 -50 0 c-27 0 -50 -4 -50 -10 0 -6 113 -10 319 -10 175 0 339 -3 365 -6 31 -5 46 -3 46 5 0 8 -58 11 -203 11 -112 0 -251 3 -309 6 l-105 7 5 153 c3 112 2 154 -7 154 -8 0 -11 -45 -11 -155z"/>
<path d="M685 2011 c66 -3 237 -7 380 -9 143 -1 568 -7 944 -12 376 -6 686 -8 688 -6 8 8 -291 16 -807 21 -1118 11 -1321 12 -1205 6z"/>
<path d="M552 1695 c4 -4 441 -14 970 -21 1099 -15 1191 -15 1133 -4 -22 4 -350 10 -730 14 -379 3 -845 9 -1035 12 -190 4 -342 3 -338 -1z"/>
<path d="M527 1082 c-46 -51 13 -119 67 -79 21 16 24 60 6 82 -17 20 -53 19 -73 -3z"/>
</g>
<g id="layer103" fill="#ec1d24" stroke="none">
<path d="M1497 3179 c-318 -28 -624 -157 -875 -369 -40 -34 -72 -63 -70 -65 2 -2 401 -8 888 -14 487 -6 982 -13 1100 -15 l215 -5 -70 65 c-195 181 -475 325 -736 378 -79 16 -280 37 -334 35 -16 -1 -70 -5 -118 -10z"/>
<path d="M366 2638 c-10 -14 -16 -44 -16 -78 0 -41 -6 -64 -23 -90 -162 -243 -263 -625 -242 -915 28 -403 179 -740 455 -1015 418 -419 1016 -562 1580 -379 426 139 779 467 947 881 145 355 157 725 37 1086 -55 168 -168 373 -266 486 l-35 40 -7 -536 c-4 -294 -4 -631 0 -747 l7 -211 -74 0 c-41 0 -380 4 -754 10 -1202 16 -1278 16 -1282 3 -5 -14 16 -20 117 -32 41 -5 188 -25 325 -44 138 -20 277 -38 310 -41 33 -4 83 -11 110 -16 28 -5 138 -21 245 -35 107 -14 240 -32 295 -40 55 -8 188 -26 295 -40 107 -14 222 -29 255 -35 33 -5 77 -12 98 -15 30 -5 37 -10 33 -23 -2 -9 -10 -60 -17 -112 -6 -52 -15 -99 -19 -103 -4 -4 -204 19 -446 52 -241 33 -753 103 -1137 156 -384 52 -709 95 -722 95 -30 0 -31 10 -11 148 9 60 17 238 21 467 3 204 10 532 15 730 5 197 6 363 4 367 -3 4 -23 8 -44 8 -29 0 -43 -6 -54 -22z"/>
<path d="M2070 2487 l0 -157 -52 -1 -53 -2 50 -7 c28 -5 194 -8 370 -7 l320 2 -313 2 -314 3 3 155 c2 84 0 157 -4 161 -4 4 -7 -63 -7 -149z"/>
<path d="M2608 1983 c18 -2 45 -2 60 0 15 2 0 4 -33 4 -33 0 -45 -2 -27 -4z"/>
<path d="M2523 1663 c31 -2 83 -2 115 0 31 2 5 3 -58 3 -63 0 -89 -1 -57 -3z"/>
<path d="M700 1408 c0 -7 9 -28 20 -45 15 -25 27 -33 49 -33 17 0 33 -4 36 -10 4 -6 -7 -10 -25 -10 l-31 0 28 -52 28 -53 113 -3 113 -3 -55 103 c-55 102 -56 103 -98 110 -76 12 -178 9 -178 -4z"/>
<path d="M1289 1372 c15 -30 29 -41 60 -51 22 -6 45 -21 51 -31 10 -18 7 -20 -20 -20 -35 0 -36 -4 -10 -47 l20 -33 108 0 109 0 -49 95 c-27 52 -59 101 -71 110 -16 11 -48 15 -119 15 l-98 0 19 -38z"/>
<path d="M2430 1395 c0 -9 87 -177 103 -198 9 -13 34 -18 120 -21 59 -3 107 -2 107 1 0 3 -25 52 -56 109 l-55 104 -94 0 c-51 0 -100 3 -109 6 -9 3 -16 3 -16 -1z"/>
<path d="M732 1028 c-43 -58 -65 -95 -58 -99 6 -3 53 -12 104 -19 83 -11 95 -10 111 4 25 22 135 176 130 181 -5 5 -164 25 -195 25 -16 0 -41 -25 -92 -92z"/>
<path d="M527 1082 c-21 -23 -22 -56 -1 -76 32 -33 87 -9 87 39 0 49 -54 72 -86 37z"/>
<path d="M1368 1025 c-14 -8 -36 -32 -49 -52 -12 -21 -36 -55 -52 -76 -35 -45 -27 -56 38 -57 22 0 58 -5 80 -10 22 -5 48 -7 58 -4 17 5 147 169 147 184 0 8 -47 16 -140 25 -38 4 -63 1 -82 -10z"/>
<path d="M1880 874 c-39 -53 -70 -98 -68 -100 2 -2 29 -6 59 -10 29 -3 71 -10 92 -15 21 -6 46 -7 55 -4 14 4 154 186 148 192 -1 1 -35 7 -76 13 -41 6 -89 13 -107 16 -30 4 -35 0 -103 -92z"/>
<path d="M2518 878 c-15 -12 -138 -174 -138 -182 0 -2 24 -6 53 -10 28 -3 76 -10 104 -14 29 -5 57 -6 61 -3 13 8 142 185 138 188 -3 4 -174 33 -192 33 -5 0 -17 -6 -26 -12z"/>
</g>
<g id="layer104" fill="#f38280" stroke="none">
<path d="M1463 3173 c9 -2 25 -2 35 0 9 3 1 5 -18 5 -19 0 -27 -2 -17 -5z"/>
<path d="M1773 3173 c9 -2 25 -2 35 0 9 3 1 5 -18 5 -19 0 -27 -2 -17 -5z"/>
<path d="M366 2638 c-11 -19 -15 -96 -21 -418 -17 -1035 -29 -1307 -58 -1336 -6 -7 19 -64 29 -64 2 0 0 9 -6 20 -14 26 -27 26 236 -10 231 -32 705 -97 764 -105 19 -3 150 -20 290 -40 831 -114 989 -135 1011 -135 12 0 19 11 24 41 4 22 4 43 1 46 -3 3 -26 9 -51 13 -43 6 -45 5 -76 -33 -29 -36 -34 -38 -68 -32 -20 4 -64 11 -99 15 -35 5 -66 11 -69 13 -3 3 7 21 21 40 l26 33 -176 24 -175 23 -33 -38 -32 -38 -59 11 c-32 7 -73 12 -91 12 -60 0 -67 8 -37 46 14 19 24 36 22 38 -2 1 -80 13 -172 25 l-168 23 -33 -38 -32 -37 -100 13 c-54 7 -102 15 -107 17 -4 3 4 18 18 35 15 17 22 34 18 38 -4 4 -82 16 -173 28 l-165 22 -30 -36 -30 -36 -105 13 c-58 7 -107 14 -109 15 -1 2 9 18 23 37 l26 35 -22 6 c-35 9 -86 7 -93 -4 -13 -20 -64 -11 -81 15 -15 22 -15 28 -1 57 24 53 36 204 42 528 3 168 8 460 13 650 4 190 7 377 7 415 l0 70 -42 3 c-35 3 -44 -1 -57 -20z"/>
<path d="M245 2329 c-9 -17 -15 -33 -13 -35 3 -2 12 12 21 31 21 43 13 47 -8 4z"/>
<path d="M92 1800 c0 -19 2 -27 5 -17 2 9 2 25 0 35 -3 9 -5 1 -5 -18z"/>
<path d="M3172 1800 c0 -19 2 -27 5 -17 2 9 2 25 0 35 -3 9 -5 1 -5 -18z"/>
<path d="M92 1470 c0 -19 2 -27 5 -17 2 9 2 25 0 35 -3 9 -5 1 -5 -18z"/>
<path d="M3172 1470 c0 -19 2 -27 5 -17 2 9 2 25 0 35 -3 9 -5 1 -5 -18z"/>
<path d="M1289 1372 c15 -30 29 -41 60 -51 22 -6 45 -21 51 -31 10 -18 7 -20 -20 -20 -34 0 -34 0 -19 -33 14 -30 75 -47 173 -47 l73 0 -49 95 c-27 52 -59 101 -71 110 -16 11 -48 15 -119 15 l-98 0 19 -38z"/>
<path d="M890 1174 c0 -7 8 -21 18 -32 13 -16 38 -23 112 -31 146 -17 244 -20 978 -27 l682 -7 0 26 c0 14 3 32 6 41 5 13 -1 16 -30 16 -41 0 -41 -1 -21 -40 l16 -30 -103 0 c-57 0 -108 4 -114 8 -6 4 -19 22 -29 40 l-19 32 -201 -1 c-110 -1 -188 -4 -172 -6 18 -3 32 -15 42 -34 l16 -29 -105 0 c-109 0 -127 6 -141 49 -5 16 -23 19 -182 25 -96 4 -178 5 -180 2 -2 -2 3 -18 12 -35 l16 -31 -111 0 -110 0 -17 35 -16 34 -174 3 c-124 2 -173 0 -173 -8z"/>
<path d="M794 1108 c-3 -4 37 -7 88 -7 104 1 100 6 -10 11 -41 2 -76 0 -78 -4z"/>
<path d="M527 1082 c-45 -49 14 -120 65 -79 27 21 28 44 3 71 -28 31 -46 33 -68 8z"/>
<path d="M740 1041 c0 -5 35 -12 78 -16 42 -4 81 -9 85 -12 4 -2 -8 -26 -28 -53 -41 -55 -42 -60 -15 -60 12 0 37 22 64 57 25 31 44 58 43 59 -4 4 -187 34 -207 34 -11 0 -20 -4 -20 -9z"/>
<path d="M220 996 c0 -11 50 -106 55 -106 3 0 -7 24 -21 53 -28 55 -34 65 -34 53z"/>
<path d="M3012 935 c-12 -25 -20 -45 -17 -45 7 0 47 81 43 86 -3 2 -14 -17 -26 -41z"/>
<path d="M1355 955 c28 -7 64 -14 81 -14 17 -1 34 -4 37 -8 4 -3 -9 -28 -29 -55 -37 -53 -38 -64 -5 -53 20 6 104 105 96 113 -7 8 -161 32 -195 31 -33 -1 -32 -2 15 -14z"/>
<path d="M1899 881 c8 -5 45 -12 83 -16 37 -4 68 -10 68 -15 0 -4 -16 -28 -36 -54 -38 -50 -39 -62 -2 -52 21 5 93 93 93 112 0 9 -124 32 -180 33 -27 0 -36 -2 -26 -8z"/>
<path d="M2464 809 c-5 -8 17 -13 113 -27 l52 -7 -39 -51 c-35 -46 -37 -52 -21 -57 23 -6 30 -1 64 44 45 60 39 74 -45 88 -108 18 -118 19 -124 10z"/>
<path d="M535 540 c44 -44 82 -80 85 -80 2 0 -31 36 -75 80 -44 44 -82 80 -85 80 -2 0 31 -36 75 -80z"/>
<path d="M2725 538 l-80 -83 83 80 c76 74 87 85 79 85 -1 0 -38 -37 -82 -82z"/>
<path d="M890 275 c0 -7 101 -57 106 -53 2 2 -21 16 -51 31 -30 15 -55 25 -55 22z"/>
<path d="M2320 250 c-30 -16 -51 -29 -47 -30 10 0 107 49 107 55 0 7 1 7 -60 -25z"/>
<path d="M1453 93 c9 -2 25 -2 35 0 9 3 1 5 -18 5 -19 0 -27 -2 -17 -5z"/>
</g>
<g id="layer105" fill="#c7a3a0" stroke="none">
<path d="M1608 3183 c18 -2 45 -2 60 0 15 2 0 4 -33 4 -33 0 -45 -2 -27 -4z"/>
<path d="M574 2768 l-29 -33 33 29 c30 28 37 36 29 36 -2 0 -16 -15 -33 -32z"/>
<path d="M2700 2758 c41 -45 50 -53 50 -45 0 2 -21 23 -47 47 l-48 45 45 -47z"/>
<path d="M366 2638 c-11 -19 -15 -96 -21 -418 -14 -847 -24 -1173 -39 -1260 -9 -47 -16 -89 -16 -95 0 -5 21 -11 48 -11 46 -2 97 -8 572 -74 124 -16 243 -33 265 -35 22 -3 69 -10 105 -15 139 -21 1313 -180 1330 -180 14 0 20 11 25 41 4 22 4 43 1 46 -3 3 -26 9 -51 13 -43 6 -45 5 -76 -33 -29 -36 -34 -38 -68 -32 -20 4 -64 11 -99 15 -35 5 -66 11 -69 13 -3 3 7 21 21 40 l26 33 -176 24 -176 23 -30 -38 c-29 -35 -34 -37 -72 -30 -23 4 -61 9 -86 11 -25 2 -55 6 -68 9 l-23 6 27 35 c15 19 25 36 23 38 -2 1 -80 13 -172 25 l-168 23 -33 -38 -32 -37 -99 13 c-55 6 -103 14 -108 17 -4 2 4 18 18 35 15 17 22 34 18 38 -4 4 -82 16 -173 28 l-165 22 -30 -36 c-29 -35 -32 -36 -80 -30 -28 4 -76 9 -107 13 -32 3 -58 8 -58 10 0 2 11 19 25 37 l25 34 -22 6 c-35 9 -86 7 -93 -4 -13 -21 -64 -11 -81 15 -15 24 -15 29 -1 63 25 60 36 187 42 517 3 171 8 465 12 655 5 190 8 377 8 415 l0 70 -42 3 c-35 3 -44 -1 -57 -20z"/>
<path d="M1192 2535 c-1 -66 -5 -137 -8 -157 -6 -37 -8 -38 -53 -40 -139 -5 212 -15 499 -15 l335 1 -335 7 c-184 3 -356 7 -382 8 l-47 1 -4 158 c-2 148 -3 150 -5 37z"/>
<path d="M2070 2487 l0 -157 -52 -1 -53 -2 50 -7 c28 -5 190 -8 360 -7 l310 2 -303 2 -304 3 3 155 c2 84 0 157 -4 161 -4 4 -7 -63 -7 -149z"/>
<path d="M693 2333 c70 -2 184 -2 255 0 70 1 12 3 -128 3 -140 0 -198 -2 -127 -3z"/>
<path d="M613 2013 c32 -2 81 -2 110 0 29 2 3 3 -58 3 -60 0 -84 -1 -52 -3z"/>
<path d="M1147 2003 c79 -2 207 -2 285 0 79 1 15 3 -142 3 -157 0 -221 -2 -143 -3z"/>
<path d="M1937 1993 c79 -2 207 -2 285 0 79 1 15 3 -142 3 -157 0 -221 -2 -143 -3z"/>
<path d="M2603 1983 c15 -2 39 -2 55 0 15 2 2 4 -28 4 -30 0 -43 -2 -27 -4z"/>
<path d="M83 1630 c0 -47 2 -66 4 -42 2 23 2 61 0 85 -2 23 -4 4 -4 -43z"/>
<path d="M3183 1635 c0 -44 2 -61 4 -37 2 23 2 59 0 80 -2 20 -4 1 -4 -43z"/>
<path d="M612 1693 c32 -2 84 -2 116 0 31 2 5 3 -58 3 -63 0 -89 -1 -58 -3z"/>
<path d="M1063 1683 c92 -2 242 -2 335 0 92 1 16 3 -168 3 -184 0 -260 -2 -167 -3z"/>
<path d="M1848 1673 c89 -2 235 -2 325 0 89 1 16 3 -163 3 -179 0 -252 -2 -162 -3z"/>
<path d="M2523 1663 c32 -2 81 -2 110 0 29 2 3 3 -58 3 -60 0 -84 -1 -52 -3z"/>
<path d="M1870 1360 c17 -33 25 -40 50 -40 24 0 35 -8 55 -40 14 -22 25 -42 25 -44 0 -3 -15 -6 -32 -8 l-33 -3 23 -22 c20 -21 32 -23 122 -23 55 0 100 3 100 8 0 4 -24 52 -54 107 l-54 100 -111 3 -112 3 21 -41z"/>
<path d="M2430 1396 c0 -4 9 -24 20 -46 16 -31 26 -39 52 -42 29 -3 37 -11 67 -65 29 -53 40 -64 67 -69 18 -3 37 -3 43 1 20 11 13 132 -9 175 l-20 40 -94 0 c-52 0 -101 3 -110 6 -9 3 -16 3 -16 0z"/>
<path d="M890 1174 c0 -7 8 -21 18 -32 35 -40 151 -46 1165 -58 l607 -7 0 26 c0 14 3 32 6 41 5 13 -1 16 -30 16 -41 0 -41 -1 -21 -40 l16 -30 -103 0 c-57 0 -108 4 -114 8 -6 4 -19 22 -29 40 l-19 32 -201 -1 c-110 -1 -188 -4 -172 -6 18 -3 32 -15 42 -34 l16 -29 -105 0 c-109 0 -127 6 -141 49 -5 16 -23 19 -182 25 -96 4 -178 5 -180 2 -2 -2 3 -18 12 -35 l16 -31 -111 0 -110 0 -17 35 -16 34 -174 3 c-124 2 -173 0 -173 -8z"/>
<path d="M527 1082 c-45 -50 13 -120 65 -79 29 22 27 62 -3 70 -12 3 -18 10 -14 16 11 19 -31 12 -48 -7z"/>
<path d="M744 1042 c3 -6 39 -13 78 -17 40 -4 77 -9 81 -12 4 -2 -8 -26 -28 -53 -41 -55 -42 -60 -15 -60 12 0 37 22 64 57 25 31 44 58 43 59 -3 4 -130 24 -186 31 -27 3 -41 1 -37 -5z"/>
<path d="M1360 955 c30 -8 67 -14 81 -15 41 0 41 -10 3 -62 -37 -53 -38 -64 -5 -53 21 6 104 106 96 114 -7 6 -103 21 -170 26 l-60 4 55 -14z"/>
<path d="M1935 875 c28 -7 65 -14 83 -14 17 -1 32 -5 32 -10 0 -4 -16 -29 -36 -55 -38 -50 -39 -62 -2 -52 22 6 95 96 91 113 -3 9 -60 20 -153 27 l-65 5 50 -14z"/>
<path d="M2465 805 c6 -3 45 -10 87 -17 l77 -13 -39 -52 c-35 -45 -37 -51 -21 -56 23 -6 30 -1 64 44 39 52 36 75 -10 83 -47 9 -172 17 -158 11z"/>
<path d="M2774 588 l-29 -33 33 29 c17 17 32 31 32 33 0 8 -8 1 -36 -29z"/>
<path d="M2674 488 l-29 -33 33 29 c17 17 32 31 32 33 0 8 -8 1 -36 -29z"/>
<path d="M1593 83 c26 -2 67 -2 90 0 23 2 2 3 -48 3 -49 0 -68 -1 -42 -3z"/>
</g>
<g id="layer106" fill="#fdfbfa" stroke="none">
<path d="M366 2638 c-11 -17 -15 -53 -15 -143 0 -127 -18 -1008 -25 -1280 -3 -88 -12 -202 -21 -254 -8 -52 -14 -95 -13 -96 4 -3 243 -34 313 -41 43 -3 56 -2 45 5 -8 6 -34 11 -57 11 -24 0 -43 3 -43 6 0 3 11 20 25 38 l25 34 -22 6 c-36 9 -83 7 -95 -5 -19 -19 -66 -6 -83 23 -13 25 -13 30 1 55 27 47 38 192 44 578 3 204 8 444 10 535 2 91 6 251 7 355 l3 190 -42 3 c-35 3 -44 -1 -57 -20z"/>
<path d="M1188 2485 c-2 -85 0 -155 5 -155 4 0 7 70 7 155 0 85 -2 155 -5 155 -2 0 -5 -70 -7 -155z"/>
<path d="M2074 2445 c0 -71 1 -99 3 -62 2 37 2 96 0 130 -2 34 -3 4 -3 -68z"/>
<path d="M813 2333 c48 -2 126 -2 175 0 48 1 8 3 -88 3 -96 0 -136 -2 -87 -3z"/>
<path d="M1613 2323 c59 -2 154 -2 210 0 56 1 8 3 -108 3 -115 0 -161 -2 -102 -3z"/>
<path d="M2363 2313 c37 -2 97 -2 135 0 37 2 6 3 -68 3 -74 0 -105 -1 -67 -3z"/>
<path d="M700 1408 c0 -7 9 -28 20 -45 15 -25 27 -33 49 -33 17 0 33 -4 36 -10 4 -6 -7 -10 -25 -10 l-31 0 16 -30 c12 -23 22 -30 45 -30 20 0 35 -8 46 -25 15 -23 22 -25 95 -25 l79 0 -54 103 c-55 101 -56 102 -98 109 -76 12 -178 9 -178 -4z"/>
<path d="M1289 1372 c15 -30 29 -41 60 -51 22 -6 45 -21 51 -31 10 -18 7 -20 -20 -20 -34 0 -34 0 -19 -33 13 -30 80 -47 178 -47 l68 0 -49 95 c-27 52 -59 101 -71 110 -16 11 -48 15 -119 15 l-98 0 19 -38z"/>
<path d="M1870 1360 c17 -33 25 -40 50 -40 24 0 35 -8 55 -40 14 -22 25 -42 25 -44 0 -3 -15 -6 -32 -8 l-33 -3 21 -21 c18 -18 34 -21 122 -22 56 -1 102 1 102 6 0 4 -24 52 -54 107 l-54 100 -111 3 -112 3 21 -41z"/>
<path d="M2430 1396 c0 -4 9 -24 20 -46 16 -31 26 -39 52 -42 29 -3 37 -11 67 -65 34 -62 35 -63 78 -63 l43 0 0 63 c0 39 -7 77 -20 105 l-19 42 -95 0 c-52 0 -101 3 -110 6 -9 3 -16 3 -16 0z"/>
<path d="M890 1170 c0 -5 8 -18 19 -29 21 -21 137 -37 326 -45 99 -5 106 -4 71 8 -28 9 -44 22 -55 44 l-15 32 -173 0 c-109 0 -173 -4 -173 -10z"/>
<path d="M1493 1173 c-33 -4 -33 -4 -18 -34 l16 -29 -48 -1 c-46 -1 -47 -1 -15 -9 19 -4 308 -11 643 -15 l609 -8 0 26 c0 14 3 32 6 41 5 13 -1 16 -30 16 -41 0 -41 -1 -21 -40 l16 -30 -105 0 c-72 0 -109 4 -116 13 -5 6 -19 24 -31 40 l-20 27 -197 -1 c-108 -1 -185 -4 -169 -6 18 -3 32 -15 42 -34 l16 -29 -105 0 c-110 0 -127 6 -141 50 -6 18 -15 20 -94 20 -49 0 -115 2 -147 4 -32 2 -74 2 -91 -1z"/>
<path d="M833 1103 c26 -2 68 -2 95 0 26 2 4 3 -48 3 -52 0 -74 -1 -47 -3z"/>
<path d="M527 1082 c-45 -50 13 -120 65 -79 26 19 28 67 3 67 -9 0 -18 7 -21 15 -8 20 -27 19 -47 -3z"/>
<path d="M780 1040 c-12 -8 -12 -10 5 -10 29 -1 98 -10 113 -16 10 -3 3 -18 -22 -53 -42 -56 -43 -61 -16 -61 12 0 37 22 64 57 25 31 44 58 43 59 -1 2 -34 8 -72 14 -39 6 -77 13 -85 15 -8 3 -22 0 -30 -5z"/>
<path d="M1367 962 c-4 -5 -1 -9 6 -10 21 -2 82 -13 95 -18 10 -3 4 -18 -22 -54 -21 -29 -31 -52 -25 -55 15 -10 51 18 87 68 37 52 38 50 -48 61 -19 2 -47 7 -61 11 -15 3 -29 3 -32 -3z"/>
<path d="M795 855 c-25 -34 -31 -37 -66 -32 -22 3 -42 1 -45 -4 -3 -5 1 -9 8 -10 7 0 118 -15 246 -32 127 -18 232 -29 232 -25 0 4 -8 8 -18 8 -31 0 -33 11 -6 43 14 16 21 33 17 37 -4 4 -69 14 -143 24 -74 9 -149 20 -166 22 -26 5 -34 0 -59 -31z"/>
<path d="M1952 881 c-14 -9 28 -21 74 -21 32 0 30 -9 -11 -63 -34 -45 -33 -65 3 -52 22 7 94 107 84 116 -4 4 -29 9 -57 12 -27 3 -57 8 -65 11 -8 3 -21 2 -28 -3z"/>
<path d="M1366 774 l-28 -36 -77 6 c-106 7 -44 -4 234 -43 127 -17 238 -33 248 -35 9 -2 17 0 17 5 0 5 -9 9 -19 9 -47 0 -52 10 -24 46 14 19 24 36 22 38 -4 2 -326 47 -339 46 -3 0 -18 -16 -34 -36z"/>
<path d="M2541 801 c-14 -9 -3 -12 76 -24 7 -1 -5 -24 -27 -53 -35 -46 -37 -52 -21 -57 24 -6 33 0 65 47 37 55 34 72 -13 80 -22 3 -45 8 -53 11 -7 3 -19 1 -27 -4z"/>
<path d="M1934 693 l-30 -37 -59 12 c-52 11 -76 10 -64 -2 2 -2 121 -20 264 -40 143 -20 270 -38 282 -40 37 -5 16 11 -22 18 -19 4 -35 9 -35 12 0 3 10 18 22 34 12 16 20 32 17 34 -4 4 -305 46 -329 46 -8 0 -29 -17 -46 -37z"/>
<path d="M2505 613 l-30 -36 -54 12 c-30 6 -56 9 -59 6 -9 -9 1 -13 48 -19 25 -4 74 -11 110 -16 107 -16 107 -16 115 31 8 49 -1 59 -60 59 -34 0 -45 -6 -70 -37z"/>
</g>


</svg>