<!DOCTYPE svg PUBLIC "-//W3C//DTD SVG 20010904//EN" "http://www.w3.org/TR/2001/REC-SVG-20010904/DTD/svg10.dtd">
<svg version="1.0" xmlns="http://www.w3.org/2000/svg" width="327px" height="342px" viewBox="0 0 3270 3420" preserveAspectRatio="xMidYMid meet">
<g id="layer101" fill="#231f20" stroke="none">
 <path d="M1560 3333 c-105 -6 -221 -24 -318 -49 -77 -20 -126 -25 -237 -27 -163 -3 -223 -21 -343 -101 -84 -55 -120 -97 -165 -186 -17 -36 -38 -69 -45 -75 -14 -11 -61 -140 -62 -167 0 -10 -15 -39 -34 -65 -195 -276 -300 -671 -267 -1008 39 -394 179 -694 450 -966 276 -275 606 -427 992 -455 l96 -7 6 -58 c3 -32 8 -62 12 -68 8 -14 155 -14 192 0 53 20 123 107 123 154 0 9 9 15 23 15 38 0 250 76 344 123 154 78 269 162 399 291 137 138 214 242 294 401 305 600 183 1330 -299 1805 -208 205 -473 349 -752 408 -121 26 -300 42 -409 35z"/>
 </g>
<g id="layer102" fill="#39b54a" stroke="none">
 <path d="M1511 3329 c-103 -8 -266 -38 -336 -62 l-37 -13 59 -18 c116 -37 229 -106 329 -202 102 -99 99 -87 154 -583 109 -968 155 -1349 165 -1359 3 -3 70 59 148 139 324 327 426 593 357 930 -11 54 -44 176 -74 271 -29 95 -52 175 -50 176 5 6 120 -76 188 -133 130 -111 234 -275 277 -440 26 -98 36 -317 20 -421 -38 -245 -145 -455 -346 -674 -155 -170 -230 -290 -325 -522 -28 -66 -55 -127 -61 -135 -19 -22 17 -16 142 26 242 82 424 195 605 375 137 138 214 242 294 401 265 521 210 1149 -142 1628 -79 107 -231 256 -341 334 -217 153 -497 259 -737 278 -152 12 -187 12 -289 4z"/>
 <path d="M429 2853 c-11 -27 -26 -70 -32 -98 -6 -27 -25 -70 -43 -95 -194 -277 -298 -670 -265 -1005 39 -394 179 -694 450 -966 276 -275 606 -427 992 -455 l96 -7 6 -58 c3 -32 8 -62 12 -68 8 -14 155 -14 192 0 38 14 81 56 104 101 26 51 25 53 -18 26 -32 -19 -51 -23 -125 -23 -47 0 -89 3 -92 6 -3 3 -64 484 -136 1069 -71 585 -131 1064 -132 1065 -2 1 -82 -15 -178 -36 -318 -70 -437 -73 -556 -18 -69 33 -158 124 -194 201 -49 106 -63 179 -57 301 2 59 3 107 0 107 -2 0 -13 -21 -24 -47z"/>
 </g>
<g id="layer103" fill="#95c998" stroke="none">
 <path d="M1478 3323 c12 -2 32 -2 45 0 12 2 2 4 -23 4 -25 0 -35 -2 -22 -4z"/>
 <path d="M1748 3323 c12 -2 32 -2 45 0 12 2 2 4 -23 4 -25 0 -35 -2 -22 -4z"/>
 <path d="M1185 3270 c-13 -5 -14 -9 -5 -9 8 0 24 4 35 9 13 5 14 9 5 9 -8 0 -24 -4 -35 -9z"/>
 <path d="M2055 3270 c11 -5 27 -9 35 -9 9 0 8 4 -5 9 -11 5 -27 9 -35 9 -9 0 -8 -4 5 -9z"/>
 <path d="M2150 3242 c8 -5 26 -13 40 -16 17 -5 20 -4 10 2 -8 5 -26 13 -40 16 -17 5 -20 4 -10 -2z"/>
 <path d="M2240 3205 c14 -8 30 -14 35 -14 6 0 -1 6 -15 14 -14 8 -29 14 -35 14 -5 0 1 -6 15 -14z"/>
 <path d="M2370 3146 c0 -3 14 -12 30 -21 17 -9 30 -13 30 -11 0 3 -13 12 -30 21 -16 9 -30 13 -30 11z"/>
 <path d="M2460 3093 c175 -126 271 -212 379 -338 42 -49 42 -49 10 -5 -77 104 -308 311 -393 351 -16 7 -15 5 4 -8z"/>
 <path d="M429 2853 c-11 -27 -26 -70 -32 -98 -6 -27 -21 -63 -33 -80 -34 -47 -57 -85 -51 -85 3 0 20 24 38 52 l34 53 7 -87 c20 -234 138 -401 323 -454 86 -24 217 -14 455 36 107 22 199 39 204 37 6 -2 64 -449 131 -993 l120 -989 -55 -6 -55 -6 56 -1 56 -2 6 -59 c3 -33 8 -64 12 -70 8 -14 155 -14 192 0 38 14 81 56 104 101 26 51 25 53 -18 26 -32 -19 -51 -23 -125 -23 -47 0 -89 3 -92 6 -3 3 -64 484 -136 1069 -71 585 -131 1064 -132 1065 -2 1 -82 -15 -178 -36 -318 -70 -437 -73 -556 -18 -69 33 -158 124 -194 201 -49 106 -63 179 -57 301 2 59 3 107 0 107 -2 0 -13 -21 -24 -47z"/>
 <path d="M2916 2648 c20 -32 39 -58 41 -58 7 0 -29 58 -55 88 -13 15 -6 1 14 -30z"/>
 <path d="M245 2479 c-9 -17 -15 -33 -13 -35 3 -2 12 12 21 31 21 43 13 47 -8 4z"/>
 <path d="M3017 2475 c9 -19 18 -33 21 -31 4 5 -26 66 -33 66 -3 0 3 -16 12 -35z"/>
 <path d="M2170 2484 c0 -3 25 -86 55 -184 73 -241 88 -326 83 -470 -4 -89 -11 -133 -31 -195 -32 -98 -9 -73 33 37 52 133 63 199 57 333 -5 117 -22 205 -68 357 -19 61 -25 70 -68 97 -48 31 -61 36 -61 25z"/>
 <path d="M93 1945 c0 -22 2 -30 4 -17 2 12 2 30 0 40 -3 9 -5 -1 -4 -23z"/>
 <path d="M3173 1940 c0 -25 2 -35 4 -22 2 12 2 32 0 45 -2 12 -4 2 -4 -23z"/>
 <path d="M83 1780 c0 -47 2 -66 4 -42 2 23 2 61 0 85 -2 23 -4 4 -4 -43z"/>
 <path d="M3183 1785 c0 -44 2 -61 4 -37 2 23 2 59 0 80 -2 20 -4 1 -4 -43z"/>
 <path d="M93 1625 c0 -22 2 -30 4 -17 2 12 2 30 0 40 -3 9 -5 -1 -4 -23z"/>
 <path d="M3173 1625 c0 -22 2 -30 4 -17 2 12 2 30 0 40 -3 9 -5 -1 -4 -23z"/>
 <path d="M141 1360 c0 -8 4 -24 9 -35 5 -13 9 -14 9 -5 0 8 -4 24 -9 35 -5 13 -9 14 -9 5z"/>
 <path d="M3097 1288 c-9 -29 -15 -54 -13 -56 2 -2 12 20 21 48 9 28 15 53 13 55 -2 3 -12 -19 -21 -47z"/>
 <path d="M166 1280 c3 -14 11 -32 16 -40 6 -10 7 -7 2 10 -3 14 -11 32 -16 40 -6 10 -7 7 -2 -10z"/>
 <path d="M2507 1113 c-25 -38 -89 -115 -142 -173 -102 -113 -173 -210 -224 -305 -18 -33 -24 -49 -14 -35 59 82 138 179 207 256 43 49 98 116 121 149 44 61 110 175 103 175 -3 0 -25 -30 -51 -67z"/>
 <path d="M210 1167 c0 -18 83 -170 141 -257 104 -155 321 -364 461 -444 51 -29 21 -5 -67 55 -101 68 -304 270 -374 373 -30 43 -78 124 -107 180 -30 56 -54 98 -54 93z"/>
 <path d="M3017 1095 c-20 -41 -35 -75 -32 -75 7 0 77 141 73 146 -2 2 -21 -30 -41 -71z"/>
 <path d="M2932 943 c-23 -38 -32 -55 -18 -39 24 29 70 106 63 106 -2 0 -22 -30 -45 -67z"/>
 <path d="M2850 828 c-19 -24 -26 -37 -17 -29 19 15 61 71 54 71 -2 0 -19 -19 -37 -42z"/>
 <path d="M2710 677 c-58 -56 -141 -126 -185 -156 -89 -60 -118 -84 -67 -55 69 39 200 145 282 228 46 47 82 86 80 86 -3 -1 -52 -47 -110 -103z"/>
 <path d="M850 445 c0 -2 18 -14 40 -25 22 -11 40 -18 40 -15 0 2 -18 14 -40 25 -22 11 -40 18 -40 15z"/>
 <path d="M2388 434 c-38 -20 -36 -28 2 -9 17 9 30 18 30 20 0 7 -1 6 -32 -11z"/>
 <path d="M990 370 c19 -11 40 -19 45 -19 6 0 -6 8 -25 19 -19 11 -39 19 -45 19 -5 0 6 -8 25 -19z"/>
 <path d="M2260 370 c-19 -11 -30 -19 -25 -19 6 0 26 8 45 19 19 11 31 19 25 19 -5 0 -26 -8 -45 -19z"/>
 <path d="M1205 290 c11 -5 27 -9 35 -9 9 0 8 4 -5 9 -11 5 -27 9 -35 9 -9 0 -8 -4 5 -9z"/>
 <path d="M2035 290 c-13 -5 -14 -9 -5 -9 8 0 24 4 35 9 13 5 14 9 5 9 -8 0 -24 -4 -35 -9z"/>
 <path d="M1438 243 c12 -2 30 -2 40 0 9 3 -1 5 -23 4 -22 0 -30 -2 -17 -4z"/>
 </g>
<g id="layer104" fill="#fafcfa" stroke="none">
 <path d="M430 2856 c-31 -73 -40 -117 -40 -196 1 -252 127 -449 325 -506 86 -24 217 -14 459 36 109 23 201 38 205 33 4 -4 62 -465 129 -1023 67 -558 125 -1035 130 -1060 l7 -45 70 -3 c96 -4 129 4 171 40 30 27 74 94 74 113 0 4 -17 -4 -37 -17 -32 -19 -51 -23 -125 -23 -47 0 -89 3 -92 6 -3 3 -64 484 -136 1069 -71 585 -131 1064 -132 1065 -2 1 -82 -15 -178 -36 -318 -70 -437 -73 -556 -18 -69 33 -158 124 -194 201 -49 106 -63 179 -57 301 2 59 3 107 0 107 -2 0 -12 -20 -23 -44z"/>
 <path d="M2170 2484 c0 -3 24 -86 54 -184 30 -98 62 -215 70 -260 20 -103 20 -254 1 -345 -8 -38 -13 -71 -11 -73 6 -6 57 129 71 191 30 126 16 297 -41 495 -32 113 -37 123 -88 155 -43 27 -56 32 -56 21z"/>
 <path d="M2482 1077 c-17 -24 -70 -86 -117 -138 -88 -95 -153 -181 -194 -254 l-22 -40 28 35 c15 19 60 69 100 112 92 99 183 212 183 227 0 6 5 11 10 11 6 0 10 7 10 15 0 8 4 15 8 15 4 0 13 14 19 30 6 17 10 30 9 30 -2 0 -17 -19 -34 -43z"/>
 </g>

</svg>