<!DOCTYPE svg PUBLIC "-//W3C//DTD SVG 20010904//EN" "http://www.w3.org/TR/2001/REC-SVG-20010904/DTD/svg10.dtd">
<svg version="1.0" xmlns="http://www.w3.org/2000/svg" width="327px" height="350px" viewBox="0 0 3270 3500" preserveAspectRatio="xMidYMid meet">
<g id="layer101" fill="#231f20" stroke="none">
 <path d="M1490 3400 c-906 -94 -1535 -917 -1384 -1810 101 -597 558 -1093 1142 -1240 51 -13 52 -3 -11 -152 l-46 -108 80 0 80 0 6 30 c5 26 10 30 38 30 33 0 34 2 59 77 l26 78 157 0 c282 1 528 65 758 196 661 377 953 1155 702 1874 -140 400 -456 737 -850 905 -233 99 -519 144 -757 120z"/>
 </g>
<g id="layer102" fill="#0066b3" stroke="none">
 <path d="M1490 3400 c-933 -97 -1569 -970 -1371 -1880 120 -550 540 -999 1080 -1156 47 -13 87 -26 89 -29 3 -2 -18 -57 -45 -122 l-50 -118 75 -3 c78 -3 92 3 92 40 0 12 -10 18 -39 20 l-39 3 152 360 c84 198 172 405 196 460 44 100 60 184 46 239 -10 40 -62 92 -115 115 -55 23 -89 28 -621 76 -212 19 -404 38 -427 41 l-43 6 0 116 c0 116 0 117 71 342 148 472 220 686 238 714 11 16 46 43 78 60 89 48 103 79 103 236 0 147 10 190 51 225 34 28 54 27 100 -6 30 -21 62 -118 84 -253 17 -103 36 -144 78 -160 49 -20 750 -29 794 -11 44 19 60 48 93 172 16 59 42 149 58 198 l29 90 51 3 c29 2 52 2 52 0 0 -2 7 -52 15 -113 8 -60 15 -146 15 -189 0 -105 23 -156 84 -185 23 -12 48 -21 55 -21 26 0 68 -40 95 -89 29 -55 74 -242 201 -852 l68 -326 -19 -38 c-10 -21 -32 -48 -47 -59 -32 -24 -101 -26 -492 -16 l-200 5 -47 -28 c-26 -15 -56 -40 -67 -56 -41 -57 -32 -85 109 -351 72 -134 136 -264 142 -288 10 -40 9 -47 -7 -58 -26 -19 -59 -17 -78 4 -9 10 -40 67 -68 128 -28 60 -94 200 -146 312 l-96 202 -42 0 c-32 0 -45 -5 -50 -17 -40 -102 -284 -828 -279 -832 11 -11 298 -5 374 8 333 57 609 194 844 420 437 421 585 1056 383 1636 -140 400 -456 737 -850 905 -233 99 -519 144 -757 120z"/>
 <path d="M995 2571 c-22 -10 -48 -27 -58 -39 -10 -11 -68 -166 -128 -344 -196 -576 -182 -528 -169 -571 13 -43 52 -72 109 -82 54 -8 1466 -105 1538 -105 55 0 67 4 95 28 26 24 31 36 31 73 0 38 -139 797 -164 901 -12 47 -53 96 -99 116 -36 17 -265 26 -870 37 -223 5 -249 3 -285 -14z"/>
 </g>
<g id="layer103" fill="#fbfcfc" stroke="none">
 <path d="M1597 3403 c18 -2 50 -2 70 0 21 2 7 4 -32 4 -38 0 -55 -2 -38 -4z"/>
 <path d="M2125 3008 c-21 -68 -48 -162 -60 -210 -23 -94 -19 -105 27 -68 30 23 40 48 67 155 11 44 32 113 46 154 14 41 25 78 25 83 0 4 -15 8 -33 8 l-34 0 -38 -122z"/>
 <path d="M916 3079 c-33 -39 -35 -48 -38 -209 -2 -110 -6 -141 -21 -163 -21 -32 -13 -34 30 -7 58 35 73 82 73 222 0 68 4 138 9 156 8 28 7 32 -9 32 -10 0 -30 -14 -44 -31z"/>
 <path d="M535 2948 l-70 -73 73 70 c39 38 72 71 72 72 0 8 -11 -2 -75 -69z"/>
 <path d="M2725 2950 c38 -38 72 -70 74 -70 3 0 -26 32 -64 70 -38 39 -72 70 -74 70 -3 0 26 -31 64 -70z"/>
 <path d="M741 2612 c-23 -11 -42 -33 -57 -62 -12 -25 -86 -246 -164 -491 l-141 -447 3 -108 3 -109 120 -12 c66 -7 294 -28 507 -48 237 -21 406 -41 435 -51 66 -22 112 -59 134 -108 37 -83 33 -98 -155 -535 -103 -239 -132 -298 -145 -294 -13 4 -13 3 -2 -5 11 -8 5 -31 -36 -128 l-50 -119 75 -3 c78 -3 92 3 92 40 0 12 -10 18 -39 20 l-39 3 152 360 c84 198 172 405 196 460 44 100 60 184 46 239 -10 40 -62 92 -115 115 -55 23 -89 28 -621 76 -212 19 -404 38 -427 41 l-43 6 0 117 c0 111 2 124 46 261 157 497 238 748 250 773 8 15 13 27 12 27 -2 -1 -18 -9 -37 -18z"/>
 <path d="M3012 2555 c12 -24 23 -43 26 -41 4 5 -36 86 -43 86 -3 0 5 -20 17 -45z"/>
 <path d="M994 2571 c-23 -10 -44 -23 -47 -27 -3 -5 92 -10 211 -12 120 -2 307 -7 417 -12 110 -5 256 -10 325 -10 170 -1 229 -29 259 -123 22 -70 172 -893 169 -924 -5 -42 11 -43 54 -5 26 24 31 36 31 73 0 38 -139 797 -164 901 -12 47 -53 96 -99 116 -36 17 -265 26 -870 37 -225 5 -248 3 -286 -14z"/>
 <path d="M83 1855 c0 -44 2 -61 4 -37 2 23 2 59 0 80 -2 20 -4 1 -4 -43z"/>
 <path d="M3183 1855 c0 -44 2 -61 4 -37 2 23 2 59 0 80 -2 20 -4 1 -4 -43z"/>
 <path d="M2128 1291 c-23 -8 -98 -49 -98 -54 0 -1 71 -2 158 -2 86 0 234 -2 327 -4 141 -3 176 -1 201 12 70 36 60 42 -69 42 -67 0 -205 3 -307 7 -102 4 -197 3 -212 -1z"/>
 <path d="M1772 1135 c-15 -32 -15 -35 1 -35 6 0 75 -135 152 -300 77 -165 151 -314 165 -331 25 -31 26 -31 63 -16 28 12 35 20 30 34 -3 10 -68 146 -144 302 -77 156 -139 287 -139 292 0 5 -8 24 -17 44 -15 32 -21 35 -58 35 -35 0 -44 -4 -53 -25z"/>
 <path d="M535 760 c49 -49 92 -90 95 -90 2 0 -36 41 -85 90 -49 50 -92 90 -95 90 -2 0 36 -40 85 -90z"/>
 <path d="M2725 758 l-90 -93 93 90 c85 83 97 95 89 95 -1 0 -43 -42 -92 -92z"/>
 <path d="M1583 303 c32 -2 81 -2 110 0 29 2 3 3 -58 3 -60 0 -84 -1 -52 -3z"/>
 </g>

</svg>